<?xml version="1.0" encoding="UTF-8" standalone="no"?>
<svg
   xmlns:dc="http://purl.org/dc/elements/1.1/"
   xmlns:cc="http://creativecommons.org/ns#"
   xmlns:rdf="http://www.w3.org/1999/02/22-rdf-syntax-ns#"
   xmlns:svg="http://www.w3.org/2000/svg"
   xmlns="http://www.w3.org/2000/svg"
   xmlns:sodipodi="http://sodipodi.sourceforge.net/DTD/sodipodi-0.dtd"
   xmlns:inkscape="http://www.inkscape.org/namespaces/inkscape"
   sodipodi:docname="school.svg"
   inkscape:version="1.0 (4035a4f, 2020-05-01)"
   id="svg8"
   version="1.1"
   viewBox="0 0 320 325"
   height="325mm"
   width="320mm">
  <defs
     id="defs2" />
  <sodipodi:namedview
     inkscape:window-maximized="0"
     inkscape:window-y="141"
     inkscape:window-x="48"
     inkscape:window-height="855"
     inkscape:window-width="1252"
     showborder="true"
     showgrid="false"
     inkscape:document-rotation="0"
     inkscape:current-layer="layer1"
     inkscape:document-units="mm"
     inkscape:cy="560"
     inkscape:cx="427.26996"
     inkscape:zoom="0.35"
     inkscape:pageshadow="2"
     inkscape:pageopacity="0.0"
     borderopacity="1.0"
     bordercolor="#666666"
     pagecolor="#ffffff"
     id="base" />
  <metadata
     id="metadata5">
    <rdf:RDF>
      <cc:Work
         rdf:about="">
        <dc:format>image/svg+xml</dc:format>
        <dc:type
           rdf:resource="http://purl.org/dc/dcmitype/StillImage" />
        <dc:title></dc:title>
      </cc:Work>
    </rdf:RDF>
  </metadata>
  <g
     id="layer1"
     inkscape:groupmode="layer"
     inkscape:label="Layer 1">
    <path
       id="path24"
       d="m 146.92246,323.44995 -3.49876,-0.28652 -4.54839,-0.57416 -4.54838,-0.57416 -4.54839,-0.88433 -4.54839,-0.88434 -4.72332,-1.1996 -4.72333,-1.1996 -4.54838,-1.46922 -4.54839,-1.46923 -5.42308,-2.14559 -5.423074,-2.14559 -7.172464,-3.65397 -7.172455,-3.65398 -5.039777,-3.1951 -5.03977,-3.1951 -4.019179,-2.92002 -4.01917,-2.92003 -4.411279,-3.67826 -4.411271,-3.67826 -6.660544,-6.7683 -6.660536,-6.76831 -4.035799,-5.13475 -4.035798,-5.13475 -2.504927,-3.57368 -2.504925,-3.57369 -3.365807,-5.63346 -3.365806,-5.63345 -2.690931,-5.48888 -2.69093,-5.48887 -1.873452,-4.60357 -1.873451,-4.60357 -1.520935,-4.50928 -1.5209339,-4.50929 -1.199243,-4.34374 -1.199244,-4.34373 -0.9138052,-4.16787 -0.9138059,-4.16786 -0.846948,-5.57047 -0.846948,-5.57045 -0.450785,-4.42651 -0.450784,-4.42651 0.02362,-10.44656 0.02362,-10.44656 0.593734,-5.41799 0.593733,-5.41799 0.857612,-5.12392 0.857611,-5.12391 1.3876241,-5.78765 1.387624,-5.78763 2.0694119,-6.33674 2.069411,-6.33674 1.793608,-4.3159 1.793608,-4.3159 1.870675,-4.00339 1.870675,-4.003389 2.542272,-4.603572 2.542272,-4.603572 3.963445,-6.020051 3.963444,-6.02006 3.634966,-4.603568 3.634966,-4.60357 3.70517,-4.101559 3.705169,-4.101558 4.145852,-3.931481 4.145838,-3.931482 2.799007,-2.359008 2.799016,-2.359007 3.848632,-2.933661 3.84864,-2.933661 4.560355,-3.017077 4.560364,-3.017077 4.536416,-2.575637 4.536406,-2.575639 4.600936,-2.217964 4.600932,-2.217963 4.845722,-1.932135 4.84572,-1.932136 4.9538,-1.628036 4.95381,-1.628036 5.60611,-1.398543 5.60609,-1.398544 5.26962,-0.9004468 5.26962,-0.900446 5.33796,-0.6067466 5.33798,-0.6067475 h 10.67122 10.67122 l 5.33796,0.6067475 5.33798,0.6067466 5.26961,0.900446 5.26963,0.9004468 5.60609,1.398544 5.6061,1.398543 4.9538,1.628036 4.95382,1.628036 4.84572,1.932136 4.84571,1.932135 4.60094,2.217963 4.60093,2.217964 4.54839,2.573317 4.54839,2.573317 5.94789,4.01153 5.94789,4.011529 4.54838,3.679067 4.54839,3.679068 4.0524,3.750121 4.05239,3.750123 3.88435,4.196148 3.88436,4.196144 2.33073,2.832966 2.33073,2.832967 2.8985,3.895329 2.89849,3.895334 2.98091,4.615683 2.98092,4.615692 2.54456,4.591453 2.54457,4.591452 1.87067,4.003389 1.87068,4.00339 1.7936,4.3159 1.79361,4.3159 2.06941,6.33674 2.06941,6.33674 1.38763,5.78763 1.38762,5.78765 0.85762,5.12391 0.85761,5.12392 0.59373,5.41799 0.59373,5.41799 0.0236,10.44656 0.0236,10.44656 -0.45079,4.42651 -0.45078,4.42651 -0.84695,5.57045 -0.84695,5.57047 -0.9138,4.16786 -0.91381,4.16787 -1.19924,4.34373 -1.19925,4.34374 -1.52093,4.50929 -1.52093,4.50928 -1.87345,4.60357 -1.87345,4.60357 -2.69093,5.48887 -2.69093,5.48888 -3.36581,5.63345 -3.36581,5.63346 -2.50493,3.57369 -2.50492,3.57368 -3.95034,5.00824 -3.95034,5.00825 -4.64674,4.87609 -4.64674,4.87609 -3.5299,3.2313 -3.52989,3.2313 -3.40133,2.76887 -3.40132,2.76889 -3.84976,2.78923 -3.84977,2.78924 -4.61356,2.916 -4.61356,2.91602 -7.3474,3.76326 -7.34739,3.76326 -5.42308,2.14299 -5.42308,2.14298 -4.54839,1.46923 -4.54838,1.46922 -4.72333,1.1996 -4.72332,1.1996 -4.54839,0.88303 -4.54839,0.88305 -4.37345,0.55144 -4.37345,0.55145 -4.51173,0.36009 -4.51171,0.36008 -7.73394,-0.0495 -7.73393,-0.0495 z m 24.20986,-2.82016 4.47998,-0.37283 5.94789,-0.86445 5.94789,-0.86446 5.32549,-1.21473 5.3255,-1.21474 4.73683,-1.4425 4.73683,-1.44249 4.38384,-1.60837 4.38385,-1.60836 5.76131,-2.60896 5.76132,-2.60895 5.11848,-2.87883 5.11849,-2.87883 3.36386,-2.19009 3.36386,-2.19009 3.38747,-2.43694 3.38748,-2.43694 3.26017,-2.63457 3.26017,-2.63456 3.60517,-3.23584 3.60517,-3.23585 4.16707,-4.3633 4.16706,-4.36331 3.28468,-3.98327 3.28467,-3.98327 2.4427,-3.36414 2.4427,-3.36415 2.09977,-3.18709 2.09976,-3.18709 2.38502,-4.07239 2.38502,-4.07239 3.01846,-6.19711 3.01846,-6.19712 1.80924,-4.63681 1.80922,-4.63682 1.60321,-4.92445 1.6032,-4.92444 1.38008,-5.66593 1.38006,-5.66594 0.88635,-5.1575 0.88634,-5.15751 0.5383,-4.93494 0.53831,-4.93494 0.20753,-8.14679 0.20753,-8.14678 -0.41984,-5.84099 -0.41984,-5.84097 -0.70325,-5.13476 -0.70325,-5.13476 -0.8623,-4.4265 -0.86229,-4.42651 -1.06224,-4.0724 -1.06225,-4.07239 -1.7734,-5.48887 -1.77341,-5.48887 -2.2086,-5.37021 -2.20861,-5.37019 -2.16018,-4.368124 -2.16018,-4.368122 -2.11193,-3.718269 -2.11192,-3.718269 -2.5519,-3.936556 -2.5519,-3.936556 -2.7,-3.677038 -2.7,-3.677046 -2.43999,-2.961693 -2.44,-2.961697 -3.92093,-4.29778 -3.92094,-4.29778 -4.3489,-3.977584 -4.34889,-3.977585 -3.31296,-2.679965 -3.31295,-2.679965 -4.28856,-3.080773 -4.28856,-3.080774 -4.80822,-2.948788 -4.80821,-2.948792 -6.17604,-3.117326 -6.17604,-3.117327 -5.36987,-2.134353 -5.36986,-2.134353 -4.37346,-1.423151 -4.37345,-1.423152 -4.02357,-1.07647 -4.02357,-1.076468 -4.37345,-0.881149 -4.37345,-0.881149 -5.24814,-0.715479 -5.24814,-0.715477 -4.7058,-0.3631017 -4.7058,-0.3631013 h -6.15788 -6.1579 l -4.7058,0.3631013 -4.70579,0.3631017 -5.24814,0.715477 -5.24813,0.715479 -4.37345,0.881149 -4.37345,0.881149 -4.02357,1.076468 -4.02358,1.07647 -4.37345,1.423152 -4.37345,1.423151 -5.36987,2.134353 -5.369862,2.134353 -6.176042,3.117327 -6.176042,3.117326 -4.80822,2.948792 -4.80822,2.948788 -4.288551,3.080774 -4.288559,3.080773 -3.22668,2.610249 -3.226681,2.610249 -4.757881,4.364317 -4.757871,4.364319 -4.321948,4.817733 -4.321944,4.817736 -2.667398,3.364147 -2.667399,3.364145 -3.044711,4.34059 -3.044712,4.340589 -2.903846,4.866556 -2.903847,4.866555 -2.583485,5.154158 -2.583485,5.154147 -2.249444,5.469469 -2.249444,5.46947 -1.773409,5.48887 -1.773409,5.48887 -1.0622419,4.07239 -1.062241,4.0724 -0.862294,4.42651 -0.862294,4.4265 -0.703254,5.13476 -0.7032541,5.13476 -0.419838,5.84097 -0.419838,5.84099 0.207529,8.14678 0.20753,8.14679 0.5383039,4.93494 0.5383062,4.93494 0.886341,5.15751 0.886341,5.1575 1.380071,5.66594 1.3800699,5.66593 1.603209,4.92444 1.603208,4.92445 1.80923,4.63682 1.80923,4.63681 3.018461,6.19712 3.018463,6.19711 2.385017,4.07239 2.385019,4.07239 2.099766,3.18709 2.099764,3.18709 2.442698,3.36415 2.442694,3.36414 3.284678,3.98327 3.284674,3.98327 4.167068,4.36331 4.167066,4.3633 3.60517,3.23585 3.605178,3.23584 3.260171,2.63456 3.26017,2.63457 3.387468,2.43694 3.387477,2.43694 3.363861,2.19009 3.363861,2.19009 5.118487,2.87883 5.118486,2.87883 5.761314,2.60895 5.761315,2.60896 4.38384,1.60836 4.38385,1.60837 4.73683,1.44249 4.73682,1.4425 5.32549,1.21474 5.3255,1.21473 5.94789,0.87265 5.9479,0.87265 3.6737,0.31547 3.67369,0.31547 8.46543,0.0492 8.46545,0.0492 z m -21.06097,-2.66626 -1.39951,-0.13605 -4.37344,-0.3908 -4.37345,-0.39079 -6.06595,-1.0231 -6.06595,-1.02307 -4.98615,-1.24416 -4.98617,-1.24415 -4.51736,-1.45721 -4.51738,-1.45722 -5.40107,-2.13875 -5.401062,-2.13875 -6.494724,-3.29135 -6.49472,-3.29135 -4.723323,-2.95009 -4.723323,-2.95009 -3.673698,-2.63866 -3.673698,-2.63867 -4.373449,-3.55148 -4.373448,-3.55148 -5.379288,-5.31208 -5.379287,-5.31207 -3.217631,-3.71827 -3.21763,-3.71827 -2.466133,-3.18708 -2.466136,-3.18709 -2.978196,-4.42651 -2.978194,-4.42651 -2.024049,-3.36415 -2.024047,-3.36415 -3.027552,-6.02005 -3.027551,-6.02005 -1.86521,-4.60357 -1.865209,-4.60358 -1.718238,-5.13475 -1.718239,-5.13475 -1.530573,-6.0785 -1.530573,-6.0785 -0.88784,-5.32268 -0.8878379,-5.32269 -0.518846,-5.06543 -0.518846,-5.06544 -0.229125,-6.19711 -0.229125,-6.19712 0.396767,-6.66632 0.396767,-6.66631 0.538266,-4.31143 0.538265,-4.31142 1.2154429,-6.19712 1.215443,-6.19711 1.226893,-4.51343 1.226893,-4.51342 1.585116,-4.69372 1.585116,-4.69372 1.692068,-4.07239 1.692069,-4.07239 1.549019,-3.364147 1.549019,-3.36415 2.737634,-4.957689 2.737634,-4.957692 2.25845,-3.541205 2.25845,-3.541213 2.66808,-3.718269 2.66808,-3.71826 3.47175,-4.249455 3.471749,-4.249449 5.803443,-5.869592 5.803435,-5.869592 4.023573,-3.373809 4.023573,-3.373804 3.323824,-2.471377 3.323823,-2.471381 2.624066,-1.775367 2.624074,-1.775367 3.848631,-2.305366 3.84864,-2.305365 3.323815,-1.791995 3.323824,-1.791994 5.073207,-2.292475 5.073202,-2.292475 4.45753,-1.633675 4.45753,-1.633673 4.6581,-1.418524 4.65811,-1.418524 3.82978,-0.88578 3.82977,-0.885781 4.95395,-0.872696 4.95394,-0.872697 5.3674,-0.598946 5.36739,-0.598946 h 9.97147 9.97146 l 5.3674,0.598946 5.36739,0.598946 4.95395,0.872697 4.95394,0.872696 3.82978,0.885781 3.82978,0.88578 4.6581,1.418524 4.65811,1.418524 4.45753,1.632756 4.45752,1.632757 5.42308,2.458828 5.42309,2.458827 5.42307,3.044836 5.42308,3.044836 3.49876,2.289066 3.49876,2.289062 3.6737,2.700451 3.67369,2.700451 4.19851,3.513869 4.19852,3.513871 5.80343,5.873849 5.80345,5.873848 3.47174,4.249449 3.47175,4.249455 2.66808,3.71826 2.66809,3.718269 2.25844,3.541213 2.25845,3.541205 2.73764,4.957692 2.73763,4.957689 1.54902,3.36415 1.54901,3.364147 1.69208,4.07239 1.69207,4.07239 1.58511,4.69372 1.58512,4.69372 1.22689,4.51342 1.2269,4.51343 1.21544,6.19711 1.21544,6.19712 0.53235,4.26529 0.53235,4.26529 0.40507,6.53539 0.40507,6.53539 -0.22995,6.37418 -0.22995,6.37417 -0.52041,5.06544 -0.5204,5.06543 -0.8808,5.28047 -0.8808,5.28046 -1.3857,5.58954 -1.3857,5.58953 -1.61097,4.95769 -1.61097,4.9577 -1.75661,4.42651 -1.75662,4.42651 -2.33704,4.95769 -2.33705,4.9577 -2.19949,3.89532 -2.19949,3.89533 -3.59624,5.48887 -3.59624,5.48888 -2.72675,3.5412 -2.72676,3.54121 -3.22181,3.71827 -3.22181,3.71827 -5.37928,5.31207 -5.37929,5.31208 -4.37345,3.55148 -4.37344,3.55148 -3.6737,2.63867 -3.6737,2.63866 -4.72332,2.95009 -4.72334,2.95009 -6.49472,3.29135 -6.49472,3.29135 -5.40105,2.13875 -5.40107,2.13875 -4.51738,1.45722 -4.51737,1.45721 -4.92928,1.22628 -4.92927,1.22629 -5.07321,0.89131 -5.07319,0.8913 -4.72334,0.55648 -4.72332,0.55647 -9.62159,0.12001 -9.62159,0.12003 z m 12.64271,-8.02719 -0.20363,-0.79677 -3.64867,-9.20715 -3.64867,-9.20713 -0.8656,1.94766 -0.86562,1.94766 -2.70329,5.843 -2.7033,5.84299 -0.81956,1.85913 -0.81956,1.85914 h 1.50205 1.50205 l 0.63109,-1.41648 0.63109,-1.41648 2.83334,0.004 2.83333,0.004 1.27456,0.21334 1.27455,0.21334 0.52355,1.349 0.52356,1.34899 1.0009,0.15131 1.00091,0.15131 0.47527,0.0531 0.47527,0.0531 -0.20362,-0.79677 z m -10.25047,-6.37417 0.47732,-1.1509 1.07085,-2.12472 1.07085,-2.12472 0.34069,0.8853 0.34069,0.88529 0.91485,2.27432 0.91484,2.27431 v 0.11601 0.116 h -2.8037 -2.80371 z m 15.73624,6.55124 0.15116,-0.2656 -0.46526,-8.32183 -0.46526,-8.32184 -0.0151,-1.1509 -0.0151,-1.1509 h -1.3995 -1.39951 l 0.008,0.44266 0.008,0.44265 0.50961,9.03008 0.50962,9.03008 0.008,0.2656 0.008,0.26558 h 1.20392 1.20392 l 0.15115,-0.26558 z m -24.70558,-1.7269 0.93585,-0.70718 0.72137,-0.97792 0.72136,-0.97792 v -2.07551 -2.0755 l -1.04962,-1.11805 -1.04963,-1.11805 -1.22457,-0.62555 -1.22456,-0.62557 -1.04963,-0.25128 -1.04963,-0.2513 -0.78722,-0.51536 -0.78722,-0.51536 v -1.23127 -1.23125 l 0.69976,-0.70825 0.69975,-0.70824 h 1.32164 1.32166 l 0.86507,0.60346 0.86507,0.60347 0.43297,0.54743 0.43297,0.54743 0.69636,-0.8853 0.69634,-0.8853 0.008,-0.42464 0.008,-0.42463 -1.13709,-0.87067 -1.13709,-0.87069 -1.54269,-0.4156 -1.54268,-0.41559 -1.17634,0.22336 -1.17634,0.22336 -1.19572,1.0626 -1.19572,1.06259 -0.4059,1.2448 -0.4059,1.24481 0.22643,1.22157 0.22641,1.22156 1.18247,1.19682 1.18247,1.19681 2.34222,0.7889 2.34222,0.7889 0.657,0.66497 0.65702,0.66497 v 1.19113 1.19113 l -0.92239,0.93359 -0.92241,0.9336 h -1.5441 -1.54411 l -1.11972,-0.57161 -1.11972,-0.57161 -0.93086,-0.88078 -0.93085,-0.88076 -0.61275,0.94651 -0.61275,0.94651 1.21962,1.23441 1.21962,1.23441 1.37361,0.51434 1.37361,0.51433 2.01649,-0.11493 2.01649,-0.11492 z m 38.9359,-0.11773 1.91958,-0.67062 0.21605,0.35381 0.21603,0.3538 1.29415,-0.24574 1.29415,-0.24572 -0.18538,-0.93091 -0.18538,-0.93092 -0.56362,-4.24945 -0.56362,-4.24944 -0.12346,-0.12659 -0.12345,-0.12657 -2.40935,0.2449 -2.40937,0.2449 -0.36577,0.23579 -0.36577,0.23581 0.16831,1.13885 0.1683,1.13885 1.48508,-0.20603 1.48507,-0.20601 0.22156,0.83777 0.22157,0.83777 0.004,1.29908 0.004,1.29907 -1.26829,0.79335 -1.2683,0.79336 -1.61818,0.14398 -1.61818,0.14398 -1.55416,-0.81993 -1.55417,-0.81992 -1.05958,-1.34792 -1.05959,-1.34791 -0.11848,-2.37036 -0.11849,-2.37035 0.66981,-1.23055 0.66981,-1.23055 1.28057,-1.04904 1.28058,-1.04902 2.07529,-0.15194 2.07529,-0.15193 1.06049,0.37417 1.06049,0.37418 0.1343,-0.24445 0.13429,-0.24443 0.22722,-0.9627 0.22721,-0.9627 -1.11722,-0.58475 -1.11724,-0.58475 -2.47289,0.16351 -2.47291,0.16351 -1.39951,0.73422 -1.3995,0.73422 -1.27349,1.35796 -1.27347,1.35795 -0.64389,1.23943 -0.6439,1.23942 -0.007,2.65591 -0.007,2.6559 1.08653,1.93886 1.08653,1.93884 1.25938,1.03167 1.25937,1.03167 1.85261,0.64765 1.85261,0.64767 h 1.22456 1.22457 l 1.91958,-0.67061 z m 9.36542,-1.45373 1.0681,-0.37686 0.29888,-1.65934 0.29887,-1.65933 3.80877,-1.05029 3.80876,-1.0503 1.08677,1.25054 1.08678,1.25054 1.31203,-0.32395 1.31204,-0.32396 v -0.24726 -0.24726 l -6.31849,-7.86234 -6.31849,-7.86234 h -0.25889 -0.25889 l -1.14492,8.94155 -1.14493,8.94155 -0.19462,1.32795 -0.19462,1.32796 h 0.34238 0.34238 z m 2.3693,-8.97172 0.23978,-2.26616 0.23558,-1.16589 0.23559,-1.1659 2.2005,2.72564 2.20049,2.72561 -0.46129,0.17219 -0.46128,0.17217 -1.74939,0.53041 -1.74938,0.53043 -0.46519,0.004 -0.46519,0.004 0.23978,-2.26615 z m -66.91169,7.79865 1.12586,-0.48757 1.02727,-1.10562 1.02728,-1.10562 0.14079,-2.03655 0.14078,-2.03655 -0.8314,-1.23943 -0.83141,-1.23942 -2.78579,-1.41648 -2.78579,-1.41649 -0.11646,-0.83279 -0.11647,-0.83278 0.21613,-0.87158 0.21613,-0.87156 1.09705,-0.46687 1.09705,-0.46687 1.07748,0.30542 1.07748,0.30542 0.99708,1.11418 0.99708,1.11417 0.92724,-0.94746 0.92724,-0.94747 -1.44761,-1.37508 -1.44759,-1.37508 -1.49459,-0.40734 -1.49458,-0.40733 -1.17634,0.22336 -1.17634,0.22336 -1.21276,1.07774 -1.21276,1.07774 -0.40008,1.35156 -0.40009,1.35155 0.22588,0.9109 0.22588,0.91088 1.11834,1.28919 1.11835,1.28918 2.2448,1.08529 2.24482,1.08529 0.44028,1.05985 0.4403,1.05985 -0.34587,1.00422 -0.34588,1.00422 -0.74147,0.52564 -0.74147,0.52564 h -1.21118 -1.2112 l -1.52811,-0.74871 -1.5281,-0.74872 -0.57572,-0.93335 -0.57572,-0.93336 -0.10375,-0.14538 -0.10375,-0.14537 -0.7019,0.64291 -0.70189,0.64291 v 0.44912 0.44913 l 0.91636,1.10225 0.91637,1.10226 1.09315,0.57215 1.09316,0.57215 0.87696,0.27 0.87695,0.26999 1.14834,0.0305 1.14833,0.0305 1.12586,-0.48757 z m -14.95814,-6.16368 1.38921,-0.72528 1.29289,-1.35797 1.29289,-1.35795 0.71121,-1.59354 0.71121,-1.59354 0.004,-2.3018 0.004,-2.30178 -0.81637,-1.7706 -0.81636,-1.7706 -1.43994,-1.31381 -1.43994,-1.3138 -1.9726,-0.58041 -1.9726,-0.58041 -1.6281,0.24319 -1.62809,0.24319 -1.70713,0.93544 -1.70714,0.93545 -1.18162,1.56628 -1.1816,1.56628 -0.522552,1.78095 -0.52254,1.78095 v 1.13448 1.13448 l 0.5775,1.80983 0.577502,1.80984 1.20699,1.4272 1.207,1.42721 1.09971,0.57558 1.09972,0.57559 0.87696,0.29123 0.87695,0.29123 2.10955,-0.12082 2.10954,-0.12081 1.38921,-0.72528 z m -6.67528,-2.34576 -1.06698,-0.47038 -0.91474,-1.1003 -0.91475,-1.10031 -0.42297,-1.29717 -0.42297,-1.29717 0.21157,-1.8081 0.21158,-1.80811 0.96855,-1.39158 0.96855,-1.39157 1.57444,-0.85204 1.57444,-0.85203 1.84029,0.14602 1.8403,0.14604 1.30859,1.07049 1.30859,1.07048 0.69392,1.19901 0.69392,1.19901 v 1.98785 1.98785 l -1.0438,1.70579 -1.04379,1.70579 -1.54201,0.82427 -1.542,0.82426 -1.60688,-0.0138 -1.60688,-0.0138 -1.06697,-0.47038 z m 109.60885,1.6837 1.82971,-0.87649 1.05402,-1.29423 1.05401,-1.29422 0.57162,-1.74185 0.57162,-1.74185 -0.17251,-2.17511 -0.1725,-2.17511 -0.74331,-1.47467 -0.74329,-1.47467 -1.25219,-1.23086 -1.25219,-1.23086 -1.28735,-0.62584 -1.28735,-0.62583 -1.97734,-0.15094 -1.97733,-0.15095 -1.7167,0.57711 -1.71669,0.57712 -1.42859,1.49912 -1.4286,1.49913 -0.6089,1.22341 -0.6089,1.22343 -0.16365,2.14072 -0.16365,2.14073 0.73339,1.96517 0.73339,1.96516 1.48809,1.52304 1.48809,1.52305 0.98888,0.51873 0.9889,0.51874 1.46024,0.29128 1.46024,0.29127 1.22457,-0.16862 1.22456,-0.16863 z m -5.9635,-1.89981 -0.98491,-0.29922 -1.166,-0.90014 -1.166,-0.90013 -0.73557,-1.53793 -0.73556,-1.53791 v -1.89327 -1.89329 l 0.88978,-1.53672 0.88978,-1.53672 1.37047,-0.70765 1.37048,-0.70763 h 1.77725 1.77726 l 1.40362,0.72475 1.40363,0.72477 1.05631,1.66555 1.0563,1.66555 -0.11622,2.51175 -0.11624,2.51175 -1.00499,1.3336 -1.00498,1.33359 -1.44013,0.66191 -1.44012,0.66193 -1.04962,-0.0227 -1.04964,-0.0227 -0.9849,-0.29922 z m -110.972842,-10.11414 0.83115,-1.44416 -2.50273,-1.44772 -2.502718,-1.44775 -0.644526,1.07269 -0.644525,1.0727 0.106325,0.0921 0.106325,0.0921 1.137095,0.58531 1.137096,0.58531 v 0.36341 0.36339 l -0.787221,1.40749 -0.78722,1.40748 -0.740242,0.19414 -0.740233,0.19414 -1.521274,-0.4146 -1.521274,-0.41461 -1.286303,-1.30191 -1.286294,-1.3019 -0.386349,-1.4085 -0.386341,-1.4085 -0.0018,-0.74392 -0.0018,-0.74394 0.398193,-1.20374 0.398201,-1.20372 0.873221,-1.18944 0.87322,-1.18944 1.440123,-0.66192 1.440123,-0.66192 1.551446,-0.008 1.551447,-0.008 1.533055,0.75114 1.53305,0.75115 0.89195,1.36418 0.89195,1.36419 0.60072,-0.32539 0.600702,-0.3254 0.44322,-0.54051 0.44321,-0.54051 -0.74821,-1.22532 -0.748212,-1.22531 -1.62739,-1.09102 -1.6274,-1.09102 -1.420205,-0.38907 -1.420201,-0.38906 -2.172802,0.17465 -2.172802,0.17463 -1.500896,0.89352 -1.500896,0.89352 -0.754825,0.83047 -0.754816,0.83046 -0.802101,1.57225 -0.802101,1.57224 -0.144551,2.02263 -0.14455,2.02262 0.617819,1.88267 0.617828,1.88267 1.824923,1.84706 1.824914,1.84705 1.951819,0.5743 1.951818,0.57429 -0.167554,0.44193 -0.167554,0.44194 1.148159,0.55103 1.148168,0.55103 1.85991,-3.22592 1.859906,-3.22592 0.83114,-1.44415 z m 130.325842,5.24186 -3.5e-4,-0.2565 -3.46715,-5.84299 -3.46714,-5.84299 0.11275,-0.11621 0.11275,-0.1162 7.04413,3.9421 7.04413,3.94209 1.20893,-0.75621 1.20892,-0.75622 v -0.22499 -0.22497 l -4.76876,-8.06798 -4.76873,-8.06798 -0.39195,0.008 -0.39195,0.008 -0.76674,0.61183 -0.76674,0.61184 3.66751,6.15313 3.66752,6.15314 -0.10176,0.10231 -0.10177,0.10231 -7.1049,-4.07681 -7.10489,-4.0768 -1.01812,0.42683 -1.01813,0.42683 -0.34859,0.42514 -0.34859,0.42513 4.38781,7.41596 4.38781,7.41595 0.50799,0.80042 0.50799,0.80041 1.03921,-0.54392 1.03921,-0.54391 -3.5e-4,-0.2565 z m -57.63795,-9.10307 4.81452,-0.51715 3.23263,-0.55892 3.23263,-0.55893 4.37345,-1.07361 4.37345,-1.07361 5.10844,-1.7201 5.10844,-1.7201 4.7631,-2.11405 4.76311,-2.11405 3.94855,-2.18707 3.94856,-2.18707 4.89827,-3.29059 4.89825,-3.2906 3.84864,-3.13398 3.84864,-3.13399 4.33276,-4.25766 4.33275,-4.25766 3.53946,-4.28767 3.53945,-4.28767 1.98339,-2.79475 1.9834,-2.79474 2.31153,-3.71827 2.31154,-3.71826 2.58137,-5.13476 2.58138,-5.13475 1.31015,-3.18708 1.31014,-3.1871 1.36436,-4.07239 1.36436,-4.07238 1.0185,-3.89533 1.0185,-3.89533 0.70896,-3.71827 0.70896,-3.71827 0.53836,-4.07239 0.53836,-4.07239 0.21656,-7.25947 0.21657,-7.25948 -0.42258,-5.31181 -0.42258,-5.31182 -0.88159,-5.31181 -0.88161,-5.31181 -1.17588,-4.60357 -1.17587,-4.60357 -1.4491,-4.24946 -1.44908,-4.24945 -1.40744,-3.36414 -1.40744,-3.36415 -2.21799,-4.42651 -2.21798,-4.42651 -2.48235,-4.04538 -2.48235,-4.045376 -3.43998,-4.630582 -3.43999,-4.630576 -3.63937,-4.062404 -3.63936,-4.062395 -4.0137,-3.683514 -4.0137,-3.683522 -4.54839,-3.453098 -4.54839,-3.453093 -4.00823,-2.534066 -4.00822,-2.534068 -4.38881,-2.251922 -4.38879,-2.251921 -3.32381,-1.424511 -3.32383,-1.424511 -4.19851,-1.46667 -4.19851,-1.466673 -4.54839,-1.190798 -4.54839,-1.190796 -5.42307,-0.906754 -5.42308,-0.906756 -4.19852,-0.358391 -4.1985,-0.358395 h -5.42308 -5.42308 l -4.19852,0.358395 -4.1985,0.358391 -5.42308,0.906756 -5.42308,0.906754 -4.54839,1.190796 -4.54839,1.190798 -4.19851,1.466673 -4.19851,1.46667 -3.32382,1.424511 -3.32382,1.424511 -4.37345,2.244899 -4.37345,2.244899 -3.996882,2.512463 -3.996896,2.512459 -4.575069,3.481725 -4.575079,3.481723 -4.013699,3.683522 -4.0137,3.683514 -3.639368,4.062395 -3.639368,4.062404 -3.439988,4.630576 -3.439988,4.630582 -2.482342,4.045376 -2.482342,4.04538 -2.217986,4.42651 -2.217995,4.42651 -1.407429,3.36415 -1.40744,3.36414 -1.449088,4.24945 -1.449092,4.24946 -1.175878,4.60357 -1.175877,4.60357 -0.881603,5.31181 -0.881604,5.31181 -0.422577,5.31182 -0.422576,5.31181 0.216569,7.25948 0.216567,7.25947 0.538358,4.07239 0.538353,4.07239 0.708962,3.71827 0.708964,3.71827 1.018499,3.89533 1.018499,3.89533 1.36436,4.07238 1.364358,4.07239 1.310148,3.1871 1.310147,3.18708 2.581375,5.13475 2.581376,5.13476 2.311532,3.71826 2.311532,3.71827 1.9834,2.79474 1.983391,2.79475 3.53945,4.28767 3.539451,4.28767 4.332763,4.25766 4.332754,4.25766 3.84864,3.13399 3.848632,3.13398 4.898264,3.2906 4.89826,3.29059 3.948562,2.18707 3.94856,2.18707 4.68063,2.07744 4.68062,2.07744 4.6661,1.59679 4.6661,1.59679 4.02358,1.04344 4.02357,1.04344 4.14199,0.7604 4.14197,0.7604 4.25505,0.47015 4.25504,0.47015 7.69727,0.0356 7.69727,0.0356 z m -20.20906,-2.53273 -1.74938,-0.14641 -4.19851,-0.52869 -4.19851,-0.5287 -4.5244,-0.91381 -4.52441,-0.91382 -4.71133,-1.39438 -4.71134,-1.3944 -4.93424,-1.9779 -4.93423,-1.9779 -4.16713,-2.11335 -4.16713,-2.11335 -3.88002,-2.35793 -3.880019,-2.35792 -4.011537,-2.96344 -4.011538,-2.96344 -2.985985,-2.56771 -2.985984,-2.56773 -3.809618,-3.85424 -3.80961,-3.85425 -3.012971,-3.65863 -3.012962,-3.65864 -2.134086,-3.02012 -2.134096,-3.02012 -2.206423,-3.57801 -2.206432,-3.57801 -2.024916,-3.90807 -2.024916,-3.90807 -1.564533,-3.71827 -1.564532,-3.71827 -1.446933,-4.24944 -1.446943,-4.24945 -1.020774,-3.89534 -1.020774,-3.89532 -0.853596,-4.78064 -0.8536,-4.78063 -0.460911,-3.89532 -0.460917,-3.89533 0.02232,-8.67596 0.02232,-8.67596 0.592311,-4.60358 0.592313,-4.60356 1.02909,-5.13476 1.029094,-5.13474 1.422403,-4.73849 1.422411,-4.73849 1.599607,-4.11453 1.599615,-4.11454 2.030737,-4.24946 2.030738,-4.24944 2.468179,-4.17983 2.468188,-4.17982 2.020163,-2.902595 2.020173,-2.902592 2.762821,-3.541202 2.76283,-3.541214 5.813798,-5.842986 5.813799,-5.842996 3.721657,-2.922879 3.721657,-2.92288 3.881404,-2.624716 3.881406,-2.624712 4.115672,-2.309671 4.11568,-2.309669 4.02358,-1.815099 4.02357,-1.815103 4.19851,-1.532982 4.19851,-1.532985 3.84863,-1.087938 3.84864,-1.087933 4.40354,-0.894874 4.40353,-0.894873 4.69324,-0.588684 4.69324,-0.588684 8.22209,-0.02199 8.22209,-0.02199 3.84864,0.453579 3.84863,0.45358 3.9877,0.688329 3.9877,0.688333 3.70957,0.913582 3.70957,0.913583 5.0732,1.705824 5.07321,1.705821 4.54839,2.001442 4.54838,2.001441 4.42367,2.460148 4.42368,2.460148 3.92328,2.653033 3.92328,2.653031 3.72377,2.921294 3.72377,2.921294 6.12439,6.198701 6.1244,6.198701 2.88627,3.768945 2.88628,3.768942 2.59325,3.928486 2.59325,3.9285 2.28198,4.16561 2.28198,4.16561 1.79335,4.07239 1.79335,4.07238 1.51846,4.24945 1.51846,4.24946 1.24998,4.60357 1.24999,4.60357 0.85072,4.78063 0.85074,4.78063 0.45733,3.89533 0.45735,3.89533 v 8.32184 8.32184 l -0.45735,3.89533 -0.45733,3.89533 -0.85901,4.78063 -0.859,4.78063 -0.70997,2.83297 -0.70997,2.83296 -1.38994,4.33395 -1.38994,4.33394 -1.75684,4.34202 -1.75683,4.34202 -2.18566,4.24944 -2.18567,4.24945 -2.21577,3.59075 -2.21578,3.59075 -2.1341,3.02013 -2.13408,3.02012 -3.01402,3.65863 -3.01405,3.65866 -3.80856,3.85533 -3.80856,3.85532 -2.98597,2.56665 -2.98599,2.56663 -4.01154,2.96344 -4.01153,2.96344 -3.88002,2.35792 -3.88003,2.35793 -4.16713,2.11143 -4.16712,2.11142 -4.89826,1.97481 -4.89827,1.97481 -4.74731,1.3994 -4.74731,1.39941 -4.5244,0.91319 -4.5244,0.91318 -4.02357,0.55387 -4.02358,0.55386 -8.39703,0.12187 -8.39703,0.12187 z m -30.96403,-25.62633 v -4.95769 h 1.74939 1.74938 v -0.70824 -0.70824 h -4.54839 -4.54839 v 0.70824 0.70824 h 1.92432 1.92432 v 4.95769 4.95769 h 0.87469 0.87468 z m 5.9479,2.47885 v -2.47885 h 2.44913 2.44913 v 2.47885 2.47884 h 0.87469 0.87469 v -5.66593 -5.66593 h -0.87469 -0.87469 v 2.47885 2.47884 h -2.44913 -2.44913 v -2.47884 -2.47885 h -0.87469 -0.87469 v 5.66593 5.66593 h 0.87469 0.87469 z m 14.69479,1.7706 v -0.70823 h -2.62407 -2.62407 v -1.77061 -1.77061 h 2.09925 2.09926 v -0.70824 -0.70824 h -2.09926 -2.09925 v -1.7706 -1.77061 h 2.62407 2.62407 v -0.70824 -0.70824 h -3.49876 -3.49876 v 5.66593 5.66593 h 3.49876 3.49876 z m 7.69726,-1.7706 v -2.47885 h 2.44914 2.44913 v 2.47885 2.47884 h 0.87469 0.87469 v -5.66593 -5.66593 h -0.87469 -0.87469 v 2.47885 2.47884 h -2.44913 -2.44914 v -2.47884 -2.47885 h -0.87468 -0.87469 v 5.66593 5.66593 h 0.87469 0.87468 z m 9.44666,-3.18709 v -5.66593 h -0.87469 -0.87469 v 5.66593 5.66593 h 0.87469 0.87469 z m 10.1464,2.43304 v -3.14128 h -1.74937 -1.74938 v 0.70824 0.70824 h 0.87469 0.87469 v 1.1686 1.1686 l -0.41986,0.42495 -0.41985,0.42495 h -1.45728 -1.45728 l -0.87452,-0.69625 -0.87451,-0.69623 -0.43727,-1.06846 -0.43727,-1.06848 0.22687,-1.22397 0.22687,-1.22398 1.09974,-0.93659 1.09973,-0.93659 1.59991,0.14163 1.5999,0.14163 0.51651,0.15391 0.51651,0.15389 0.12003,-0.79619 0.12004,-0.79621 -0.98642,-0.38577 -0.98642,-0.38578 -1.68798,0.1587 -1.68797,0.15869 -0.91447,0.69105 -0.91448,0.69104 -0.68276,0.92557 -0.68276,0.92557 -0.14072,1.70846 -0.14073,1.70845 0.80899,1.40926 0.809,1.40927 1.39238,0.79232 1.39237,0.79233 2.71154,-0.0341 2.71153,-0.0341 v -3.14127 z m 3.14889,0.75405 v -2.47885 h 2.44914 2.44913 v 2.47885 2.47884 h 0.87468 0.87469 v -5.66593 -5.66593 h -0.87469 -0.87468 v 2.47885 2.47884 h -2.44913 -2.44914 v -2.47884 -2.47885 h -0.87469 -0.87469 v 5.66593 5.66593 h 0.87469 0.87469 z m 14.34491,1.7706 v -0.70823 h -2.62406 -2.62408 v -1.77061 -1.77061 h 2.09926 2.09926 v -0.70824 -0.70824 h -2.09926 -2.09926 v -1.7706 -1.77061 h 2.62408 2.62406 v -0.70824 -0.70824 h -3.49875 -3.49876 v 5.66593 5.66593 h 3.49876 3.49875 z m 7.24838,-0.51609 0.79877,-0.93989 v -1.06589 -1.06589 l -0.36025,-0.6813 -0.36024,-0.6813 -1.02188,-0.53484 -1.02189,-0.53485 h -0.82519 -0.82519 l -0.64328,-0.47608 -0.64328,-0.47609 0.23186,-0.935 0.23186,-0.93501 0.87191,-0.22149 0.87191,-0.22149 0.84005,0.55711 0.84007,0.5571 0.45808,-0.55866 0.45808,-0.55865 -0.81464,-0.66765 -0.81463,-0.66766 H 189.59719 188.44 l -0.56637,0.21997 -0.56637,0.21997 -0.51187,1.00187 -0.51187,1.00187 v 0.84115 0.84116 l 0.78722,0.74569 0.78722,0.74569 1.92431,0.64399 1.92432,0.644 0.11559,0.82598 0.11558,0.82597 -0.63847,0.71405 -0.63846,0.71405 -1.34112,-0.18206 -1.34112,-0.18207 -0.62938,-0.57648 -0.62936,-0.57648 -0.22421,0.59136 -0.2242,0.59135 0.43123,0.52591 0.43124,0.52591 0.7119,0.31099 0.7119,0.31099 1.56289,-0.1387 1.56291,-0.13871 z m 7.79629,-3.73336 v -4.95769 h 1.74938 1.74938 v -0.70824 -0.70824 h -4.54838 -4.54839 v 0.70824 0.70824 h 1.92431 1.92432 v 4.95769 4.95769 h 0.87469 0.87469 z m -97.61539,-16.64367 v -4.95769 h 1.74937 1.74938 v -0.70824 -0.70825 h -4.54839 -4.548382 v 0.70825 0.70824 h 1.92432 1.924322 v 4.95769 4.95769 h 0.87469 0.87469 z m 5.94789,2.47884 v -2.47884 h 2.44913 2.44913 v 2.47884 2.47885 h 0.87469 0.87469 v -5.66593 -5.66594 h -0.87469 -0.87469 v 2.47885 2.47884 h -2.44913 -2.44913 v -2.47884 -2.47885 h -0.87469 -0.8747 v 5.66594 5.66593 h 0.8747 0.87469 z m 14.69479,1.7706 v -0.70824 h -2.62408 -2.62406 v -1.77059 -1.77061 h 2.09926 2.09925 v -0.70824 -0.70825 h -2.09925 -2.09926 v -1.7706 -1.7706 h 2.62406 2.62408 v -0.70824 -0.70825 h -3.49877 -3.49875 v 5.66594 5.66593 h 3.49875 3.49877 z m 12.4158,-0.0594 0.96428,-0.7677 0.48241,-1.16859 0.48242,-1.16859 v -3.72966 -3.72964 h -0.87468 -0.8747 v 3.99359 3.9936 l -0.54465,0.78704 -0.54466,0.78703 h -1.35982 -1.35983 l -0.54465,-0.78703 -0.54465,-0.78704 v -3.9936 -3.99359 h -0.87469 -0.87469 v 3.72964 3.72965 l 0.48241,1.16859 0.48242,1.16859 0.96427,0.7677 0.96427,0.7677 h 1.30514 1.30513 z m 8.57676,-4.18999 v -4.95769 h 1.74938 1.74937 v -0.70824 -0.70825 h -4.54838 -4.54839 v 0.70825 0.70824 h 1.92432 1.92431 v 4.95769 4.95769 h 0.87469 0.8747 z m 5.97381,1.32795 0.0259,-3.62974 1.02223,2.30179 1.02222,2.30178 0.61376,1.31887 0.61377,1.31887 1.65582,-3.62066 1.65582,-3.62065 0.006,3.62974 0.006,3.62974 h 0.87469 0.87469 v -5.66593 -5.66594 h -1.01101 -1.01101 l -1.49396,3.54121 -1.49396,3.54121 h -0.0804 -0.0804 l -1.49396,-3.54121 -1.49397,-3.54121 h -0.99379 -0.99379 v 5.66594 5.66593 h 0.87468 0.87469 l 0.0259,-3.62974 z m 17.47144,2.83297 1.15666,-0.79677 0.73192,-0.99981 0.73193,-0.9998 v -2.07278 -2.07279 l -0.73193,-0.99981 -0.73192,-0.9998 -1.15666,-0.79677 -1.15667,-0.79677 h -1.47096 -1.47096 l -1.15667,0.79677 -1.15667,0.79677 -0.73192,0.9998 -0.73193,0.99981 v 2.07279 2.07278 l 0.73193,0.9998 0.73192,0.99981 1.15667,0.79677 1.15667,0.79677 h 1.47096 1.47096 z m -5.27861,-2.00896 -1.02272,-1.03512 v -1.82508 -1.82509 l 1.02272,-1.03512 1.0227,-1.03513 h 1.63593 1.63592 l 1.01506,1.09982 1.01507,1.09981 v 1.69571 1.6957 l -1.01507,1.09981 -1.01506,1.09981 h -1.63592 -1.63593 z m 16.02219,1.58139 0.79876,-0.93988 v -1.0659 -1.06589 l -0.36024,-0.6813 -0.36025,-0.6813 -1.02189,-0.53484 -1.02187,-0.53485 h -0.82519 -0.8252 l -0.64328,-0.47608 -0.64328,-0.47609 0.23186,-0.935 0.23186,-0.935 0.87191,-0.2215 0.87191,-0.22149 0.84006,0.5571 0.84005,0.55711 0.45808,-0.55866 0.45809,-0.55865 -0.81464,-0.66766 -0.81463,-0.66765 h -1.15719 -1.15719 l -0.56637,0.21998 -0.56637,0.21997 -0.51188,1.00186 -0.51187,1.00186 v 0.84117 0.84115 l 0.78722,0.74569 0.78722,0.74568 1.92433,0.644 1.92431,0.644 0.11559,0.82597 0.11559,0.82597 -0.63847,0.71406 -0.63847,0.71406 -1.34112,-0.18207 -1.34113,-0.18207 -0.62936,-0.57648 -0.62937,-0.57647 -0.2242,0.59135 -0.22421,0.59135 0.43124,0.52591 0.43122,0.52591 0.71191,0.31099 0.7119,0.31099 1.5629,-0.13871 1.56289,-0.1387 z m 7.44641,-3.73335 v -4.95769 h 1.74938 1.74938 v -0.70824 -0.70825 h -4.54839 -4.54839 v 0.70825 0.70824 h 1.92432 1.92432 v 4.95769 4.95769 h 0.87469 0.87469 z m 11.19603,2.47884 v -2.47885 h 2.09926 2.09925 v -0.70824 -0.70825 h -2.09925 -2.09926 v -1.57803 -1.57803 l 2.5366,-0.10404 2.5366,-0.10405 0.1118,-0.79677 0.11181,-0.79677 h -3.52309 -3.5231 v 5.66594 5.66593 h 0.87469 0.87469 z m 13.29885,1.68208 1.15666,-0.79677 0.73192,-0.99981 0.73193,-0.9998 v -2.07278 -2.07279 l -0.73193,-0.99981 -0.73192,-0.9998 -1.15666,-0.79677 -1.15668,-0.79677 h -1.47096 -1.47095 l -1.15668,0.79677 -1.15665,0.79677 -0.73193,0.9998 -0.73193,0.99981 v 2.07279 2.07278 l 0.73193,0.9998 0.73193,0.99981 1.15665,0.79677 1.15668,0.79677 h 1.47095 1.47096 z m -5.27862,-2.00896 -1.02271,-1.03512 v -1.82508 -1.82509 l 1.02271,-1.03512 1.02272,-1.03513 h 1.63592 1.63592 l 1.01506,1.09982 1.01506,1.09981 v 1.69571 1.6957 l -1.01506,1.09981 -1.01506,1.09981 h -1.63592 -1.63592 z m 11.9227,0.85806 v -1.94766 h 1.16018 1.16019 l 0.79758,1.94766 0.79759,1.94767 h 0.86481 0.86482 l -0.24341,-0.79677 -0.24341,-0.79677 -0.66894,-1.3418 -0.66895,-1.34179 0.71384,-1.01466 0.71384,-1.01466 -0.0111,-1.36182 -0.0111,-1.36181 -0.42621,-0.54743 -0.42622,-0.54744 -0.86507,-0.60345 -0.86507,-0.60347 h -2.02141 -2.02141 v 5.66594 5.66593 h 0.69976 0.69975 v -1.94767 z m 0.23325,-3.60023 -0.23325,-0.23607 v -1.88865 -1.88865 h 1.34528 1.34527 l 0.57904,0.6476 0.57904,0.6476 -0.005,0.68036 -0.005,0.68036 -0.25705,0.38963 -0.25704,0.38964 -0.76423,0.40713 -0.76422,0.40714 h -0.66443 -0.66445 l -0.23325,-0.23609 z m -54.56949,-12.27745 2.07401,-2.24403 0.78425,-1.68865 0.78424,-1.68865 1.07961,0.16038 1.0796,0.16037 0.52877,-1.36244 0.52878,-1.36245 h 2.3592 2.3592 l 2.31105,-0.72248 2.31105,-0.72246 v -0.83378 -0.83377 l -0.69599,-2.2807 -0.696,-2.2807 -1.11369,-1.55606 -1.11369,-1.55606 -0.72692,-0.61555 -0.72692,-0.61555 -1.19629,-0.41286 -1.1963,-0.41286 1.02136,-0.52601 1.02136,-0.52602 0.99478,-0.93176 0.99479,-0.93176 0.83164,-1.64949 0.83165,-1.64949 0.58422,-2.12683 0.58422,-2.12682 -0.20734,-0.54689 -0.20735,-0.5469 -1.94803,-0.57317 -1.94803,-0.57319 -2.00466,-0.0554 -2.00465,-0.0554 -1.31952,0.27714 -1.31951,0.27714 -1.21708,1.08158 -1.21709,1.08158 -0.008,-1.89582 -0.008,-1.89581 -0.69095,-1.54116 -0.69096,-1.54115 -1.06714,-1.36374 -1.06716,-1.36375 -1.40666,-1.1276 -1.40667,-1.12762 -2.09505,2.1805 -2.09504,2.18049 -0.85192,1.85201 -0.85191,1.85202 -0.003,0.58241 -0.004,0.58242 -1.31203,-0.30838 -1.31203,-0.30839 -0.20625,-0.009 -0.20625,-0.009 -0.39854,0.8853 -0.39852,0.8853 -2.01929,0.0125 -2.01929,0.0126 -2.2742,0.78424 -2.27419,0.78424 -0.11639,0.63689 -0.11639,0.63689 0.72593,2.41897 0.72593,2.41897 1.17407,1.72436 1.17406,1.72434 1.73487,0.9173 1.73488,0.91731 -1.34097,0.78113 -1.34097,0.78113 -1.02904,1.43779 -1.02905,1.43778 -0.67862,1.83581 -0.67863,1.8358 -0.23622,1.59431 -0.23621,1.5943 2.02123,0.64487 2.02124,0.64487 1.94365,0.17661 1.94365,0.1766 1.43898,-0.39406 1.43897,-0.39407 1.27256,-0.87407 1.27257,-0.87406 0.004,1.67141 0.004,1.67139 0.86544,1.88157 0.86544,1.88157 2.07711,2.10229 2.07712,2.10233 h 0.33775 0.33775 z m 2.37966,-6.3961 -1.39951,-0.44798 -1.09541,-0.57797 -1.09543,-0.57798 -0.91636,-1.10226 -0.91637,-1.10225 v -0.28036 -0.28035 l 1.48968,1.50776 1.48967,1.50774 1.89766,0.57038 1.89763,0.57038 h 0.79054 0.79055 l 0.21623,0.35412 0.21624,0.35412 -0.98281,-0.0237 -0.98281,-0.0237 -1.3995,-0.44797 z m -15.91936,-2.58645 -0.87469,-0.15239 -1.31204,-0.34422 -1.31204,-0.34421 v -0.28861 -0.28859 l 1.83686,0.5019 1.83684,0.50191 1.95506,-0.16087 1.95505,-0.16087 1.19383,-0.59129 1.19383,-0.59129 -0.87469,0.71526 -0.87469,0.71525 -1.67913,0.36842 -1.67913,0.36843 -0.24518,-0.0482 -0.24519,-0.0482 z m 8.82676,-9.03982 -0.79483,-0.3877 -0.19831,-0.79975 -0.19831,-0.79974 0.12159,-0.64772 0.1216,-0.64772 1.73465,-0.11107 1.73464,-0.11107 0.44893,0.6214 0.44894,0.6214 v 0.4796 0.47959 l -0.85879,0.86921 -0.85878,0.86921 -0.45325,-0.024 -0.45326,-0.024 -0.79482,-0.38771 z m 5.34321,-1.65818 0.69976,-0.33525 1.04963,-0.0327 1.04962,-0.0327 1.50091,-0.68947 1.5009,-0.68946 -0.21105,0.34564 -0.21105,0.34564 -0.99731,0.52198 -0.99732,0.52199 -2.04191,0.18976 -2.04192,0.18975 0.69974,-0.33524 z m -11.22661,-2.13323 -1.77996,-1.03332 -0.5817,-0.89856 -0.5817,-0.89857 v -0.18952 -0.18952 l 1.3605,1.37701 1.3605,1.37701 1.87585,0.72926 1.87585,0.72926 -0.87469,0.0152 -0.87469,0.0152 -1.77996,-1.03332 z m -22.37586,7.72097 0.92252,-1.10965 0.69014,-1.3692 0.69014,-1.36919 h 0.68597 0.68598 l 0.19768,-0.79677 0.19769,-0.79678 1.64894,-0.071 1.64894,-0.0709 1.30892,-0.55354 1.30893,-0.55354 v -0.33609 -0.33608 l -0.71946,-1.94624 -0.71946,-1.94626 -1.02804,-0.87553 -1.02803,-0.87553 -0.70078,-0.22512 -0.70079,-0.22512 1.10203,-0.93854 1.10203,-0.93854 0.60647,-1.42819 0.60648,-1.42818 0.2271,-1.30792 0.2271,-1.30791 -1.32418,-0.37218 -1.32417,-0.37218 -1.61309,-0.002 -1.61309,-0.002 -1.27339,0.87463 -1.27339,0.87464 v -0.88874 -0.88875 l -0.67913,-1.34737 -0.67914,-1.34738 -1.25736,-1.11735 -1.25735,-1.11737 h -0.48324 -0.48324 l -1.12933,1.4432 -1.12933,1.44319 -0.44288,1.30124 -0.44288,1.30125 -0.90763,-0.11405 -0.90763,-0.11405 -0.19387,0.51137 -0.19388,0.51138 -1.54708,0.21462 -1.54708,0.21462 -1.24177,0.52514 -1.24177,0.52514 0.22895,0.98764 0.22894,0.98763 0.91824,1.76253 0.91824,1.76252 1.25332,0.71632 1.25333,0.71632 -1.04054,0.8653 -1.04054,0.86531 -0.62065,1.43648 -0.62064,1.43648 -0.11695,1.23918 -0.11696,1.23916 1.22457,0.42293 1.22456,0.42291 1.57444,0.0187 1.57445,0.0187 1.22457,-0.75786 1.22456,-0.75787 -0.68101,-0.24368 -0.68102,-0.24368 0.69796,-0.18474 0.69797,-0.18473 0.0823,1.09907 0.0823,1.09907 0.71178,1.48945 0.71179,1.48946 1.21297,1.07792 1.21297,1.07793 h 0.48154 0.48153 l 0.92252,-1.10965 z m 0.0143,-4.69295 -1.04976,-0.46305 -0.50196,-0.61218 -0.50198,-0.61217 1.35361,0.80834 1.35362,0.80834 1.42268,0.23643 1.42269,0.23643 -1.22457,0.0305 -1.22456,0.0305 -1.04977,-0.46306 z m -8.63743,-0.81348 0.45922,-0.18599 0.21139,0.21394 0.21138,0.21395 -0.6706,-0.0279 -0.6706,-0.0279 0.45921,-0.186 z m -1.93952,-0.35763 0.61894,-0.16324 0.43069,0.17636 0.43068,0.17638 -1.04962,-0.0131 -1.04963,-0.0131 0.61894,-0.16324 z m 6.54386,-5.96348 -0.47458,-0.57878 0.36772,-0.59002 0.36772,-0.59003 h 1.01149 1.0115 v 1.06237 1.06235 l -0.90465,0.10644 -0.90463,0.10644 z m 3.94576,-0.76351 0.61228,-0.16194 0.61229,0.16194 0.61228,0.16195 h -1.22457 -1.22457 z m -7.14978,-0.8306 -1.28937,-0.68927 -0.26477,-0.44597 -0.26477,-0.44596 0.52165,0.42694 0.52167,0.42696 1.55728,0.69892 1.5573,0.69894 -0.52482,0.009 -0.52482,0.009 -1.28935,-0.68928 z m 9.16157,0.58141 v -0.13917 l 0.54299,-0.21089 0.54298,-0.21089 -0.21376,0.35006 -0.21376,0.35006 h -0.32923 -0.32922 z m 60.64962,12.29295 1.32523,-1.30282 0.46745,-0.91491 0.46745,-0.91491 0.11414,-1.34096 0.11414,-1.34095 -0.51752,-0.37005 -0.51753,-0.37005 0.69975,0.29345 0.69975,0.29345 2.36166,0.005 2.36167,0.005 v 0.24955 0.24954 l -1.22456,0.23252 -1.22457,0.23252 -1.31204,-0.2281 -1.31203,-0.22811 0.87469,0.7068 0.87469,0.70678 1.45471,0.22546 1.45469,0.22545 1.16937,-0.2388 1.16937,-0.23882 0.65476,-0.18813 0.65476,-0.18813 -0.21088,-1.55716 -0.21087,-1.55718 -0.7108,-1.41017 -0.71079,-1.41017 -0.8829,-0.58551 -0.88289,-0.58552 0.98978,-0.60921 0.98978,-0.60923 0.9338,-1.12322 0.9338,-1.12323 0.36137,-1.31696 0.36137,-1.31695 0.002,-0.54857 0.002,-0.54858 -1.1371,-0.40386 -1.13709,-0.40387 -1.39951,-0.2433 -1.3995,-0.24331 -0.58721,-0.51825 -0.58721,-0.51825 -0.66781,0.21453 -0.6678,0.21452 -0.39948,-1.34951 -0.39948,-1.34951 -1.25924,-1.489 -1.25926,-1.489 -0.41008,0.0112 -0.41008,0.0112 -0.96013,0.85536 -0.96012,0.85535 -0.87672,1.3076 -0.87673,1.30759 v 1.20061 1.2006 l -1.02718,-0.76863 -1.02718,-0.76865 -1.6869,-0.16406 -1.68689,-0.16405 -1.48444,0.40456 -1.48443,0.40457 v 0.80857 0.80857 l 0.56867,1.68921 0.56868,1.68922 1.19236,1.20683 1.19238,1.20684 h -0.36054 -0.36053 l -1.37303,1.2555 -1.37304,1.25551 -0.55229,1.64054 -0.55228,1.64055 v 0.48616 0.48617 l 1.24245,0.52543 1.24245,0.52543 1.64403,0.12908 1.64402,0.12908 0.1118,0.7439 0.1118,0.74391 h 0.84566 0.84567 l 0.48573,1.17665 0.48575,1.17664 1.12964,1.3022 1.12964,1.3022 h 0.4113 0.41131 l 1.32523,-1.30282 z m -4.73598,-4.52436 1.85781,-0.45514 1.09767,-1.01976 1.09768,-1.01976 -0.53582,0.8853 -0.53581,0.8853 -1.19511,0.61916 -1.1951,0.61916 -1.22456,-0.0296 -1.22456,-0.0296 1.8578,-0.45514 z m 3.19236,-7.31887 -0.41999,-0.79427 0.77881,-0.6383 0.77882,-0.6383 0.68823,0.3728 0.68823,0.3728 -0.10843,0.95001 -0.10844,0.95001 -0.93862,0.10976 -0.93864,0.10975 z m -4.43788,-1.01491 -1.1371,-0.70171 v -0.19473 -0.19472 l 0.78722,0.45511 0.78722,0.45511 1.39951,0.40789 1.3995,0.40788 -1.04963,0.0334 -1.04962,0.0334 -1.1371,-0.70172 z m 9.0093,-0.40546 1.57444,-0.70568 0.83471,-0.77432 0.83471,-0.77433 -0.40906,0.79562 -0.40906,0.79562 -1.37387,0.70939 -1.37386,0.7094 -0.62622,-0.025 -0.62623,-0.025 1.57444,-0.70567 z m -113.075145,12.17609 -0.116531,-0.61971 -2.008382,-0.1062 -2.00839,-0.1062 v -1.22175 -1.22176 h 1.574441 1.57445 v -0.70824 -0.70824 h -1.57445 -1.574441 v -1.22176 -1.22174 l 2.00839,-0.1062 2.008382,-0.10621 0.116531,-0.61971 0.116523,-0.61971 h -2.824671 -2.824654 v 4.60357 4.60357 h 2.824654 2.824671 z m 5.504189,-0.24949 0.858787,-0.86921 v -0.9175 -0.91749 l -0.80253,-0.81226 -0.80253,-0.81227 -1.43347,-0.23201 -1.43348,-0.232 -0.219163,-0.57806 -0.219163,-0.57806 0.398753,-0.4863 0.398753,-0.48629 h 0.936813 0.936813 l 0.408381,0.41333 0.408381,0.41334 0.243261,-0.64161 0.243252,-0.64161 -0.648535,-0.47997 -0.648534,-0.47997 H 85.38747 84.339789 l -0.809769,0.76997 -0.809768,0.76997 v 0.97494 0.97492 l 0.871645,0.69396 0.871645,0.69396 1.19246,0.22642 1.19245,0.22642 0.424172,0.5173 0.424172,0.5173 -0.204256,0.53875 -0.204265,0.53876 -0.893773,0.41216 -0.893774,0.41218 -1.202053,-0.58017 -1.202052,-0.58017 -0.243856,0.39934 -0.243856,0.39935 0.794188,0.65089 0.794179,0.65089 h 1.376645 1.376644 z m 6.45681,-3.23027 v -4.09946 l 1.483547,0.10841 1.483547,0.10841 0.11655,-0.61251 0.11655,-0.61252 h -3.874297 -3.874287 v 0.53118 0.53119 h 1.574441 1.574441 v 4.07238 4.07239 h 0.699749 0.699759 z m 4.742154,3.7145 0.23509,-0.38498 -0.38937,-0.39408 -0.38937,-0.3941 -0.38937,0.3941 -0.38936,0.39408 0.23508,0.38498 0.23507,0.38497 h 0.30858 0.30858 z m 125.061822,-0.14625 v -0.53118 h -2.00083 -2.00083 l 2.00083,-2.04647 2.00083,-2.04646 v -1.15672 -1.15672 l -0.85878,-0.86921 -0.85879,-0.8692 h -1.08143 -1.08144 l -0.85878,0.8692 -0.85879,0.86921 v 0.72435 0.72433 h 0.50123 0.50124 l 0.22222,-0.70862 0.22221,-0.70862 0.69951,-0.37891 0.69952,-0.37891 0.85123,0.56451 0.85123,0.56451 v 0.76295 0.76294 l -2.27833,2.15039 -2.27833,2.15039 0.004,0.61971 0.004,0.61971 h 2.79901 2.799 v -0.53118 z m 6.32468,-0.50394 1.02272,-1.03512 v -2.53333 -2.53332 l -1.02272,-1.03513 -1.02271,-1.03512 h -1.10345 -1.10346 l -1.02271,1.03512 -1.02271,1.03513 v 2.53332 2.53333 l 1.02271,1.03512 1.02271,1.03512 h 1.10346 1.10345 z m -3.64638,-1.02895 -0.57904,-0.6476 v -1.95343 -1.95342 l 0.63983,-0.58607 0.63984,-0.58606 h 0.91477 0.91476 l 0.54466,0.78703 0.54466,0.78704 v 1.61301 1.61302 l -0.54466,0.78703 -0.54466,0.78704 h -0.97556 -0.97555 z m 7.81798,-2.5395 v -4.60357 h -1.22456 -1.22457 v 0.70825 0.70824 h 0.52482 0.52481 v 3.89532 3.89533 h 0.69975 0.69975 z m 3.14889,0 v -4.60357 h -1.22456 -1.22457 v 0.70825 0.70824 h 0.52481 0.52481 v 3.89532 3.89533 h 0.69975 0.69976 z m -120.56089,-5.52676 0.55343,-0.21494 v -0.27785 -0.27784 l -0.82983,-0.2108 -0.82982,-0.21081 -1.22717,-1.3748 -1.22716,-1.3748 -0.74202,-2.00728 -0.74202,-2.00728 v -0.48944 -0.48943 l 1.66191,-0.55639 1.66191,-0.5564 1.64167,-0.22563 1.64165,-0.22563 0.18422,-0.48586 0.1842,-0.48586 h 1.23555 1.23554 v -0.62495 -0.62496 l 0.73414,-1.41124 0.73415,-1.41124 1.26118,-1.32795 1.26118,-1.32795 h 0.40306 0.40305 l 1.74596,1.86848 1.74596,1.86849 0.41137,0.778 0.41138,0.77799 0.0802,1.42407 0.0802,1.42408 0.26241,0.002 0.2624,0.002 v -0.29836 -0.29836 l 1.21658,-0.66311 1.21657,-0.66312 0.39401,-1.07472 0.39401,-1.07472 0.18359,-3.41093 0.18359,-3.41094 -0.43457,-1.90087 -0.43457,-1.90089 -1.08556,-2.30178 -1.08557,-2.30178 -2.28582,-2.3216 -2.28583,-2.3216 -1.70419,-0.95301 -1.70419,-0.95301 -2.26876,-0.70925 -2.26878,-0.70925 h -2.86358 -2.86358 l -2.0568,0.54222 -2.05679,0.54223 -1.95282,1.05521 -1.95282,1.05522 -1.62504,1.40824 -1.62503,1.40824 -1.3347,2.0352 -1.334702,2.0352 -0.7839,2.18585 -0.78392,2.18584 -0.22831,2.60013 -0.22831,2.60012 0.40838,2.30179 0.40838,2.30178 1.35964,2.8646 1.359642,2.8646 2.35634,2.23098 2.35634,2.23099 2.2798,1.07979 2.27979,1.07978 1.76631,0.43428 1.76632,0.43428 1.28342,0.0301 1.28342,0.0301 0.55342,-0.21494 z m 89.9322,-0.6814 2.0568,-0.54222 2.12775,-1.13039 2.12776,-1.13039 2.28582,-2.31125 2.28584,-2.31124 1.1505,-2.39673 1.15051,-2.39674 0.54491,-3.0036 0.54491,-3.00361 -0.55196,-3.04241 -0.55194,-3.04241 -1.01037,-2.18087 -1.01037,-2.18088 -1.89412,-2.09841 -1.8941,-2.09841 -1.98465,-1.30103 -1.98464,-1.30102 -2.46175,-0.80117 -2.46173,-0.80115 -3.77571,0.15488 -3.77569,0.15488 -2.37367,0.98968 -2.37367,0.98968 -1.99978,1.56837 -1.99979,1.56837 -1.18362,1.48766 -1.18361,1.48767 -1.16556,2.47885 -1.16555,2.47884 -0.38482,2.47885 -0.38482,2.47885 0.22517,2.12472 0.22516,2.12472 0.33399,1.32193 0.33398,1.32194 0.77534,0.40439 0.77534,0.40439 0.73985,0.68069 0.73987,0.68069 0.17693,-1.58878 0.17693,-1.58877 1.23732,-1.70354 1.23732,-1.70354 1.13713,-0.84845 1.13713,-0.84844 0.55739,0.34947 0.5574,0.34949 1.31736,1.73838 1.31736,1.7384 0.39993,1.32795 0.39993,1.32795 h 1.13175 1.13176 l 0.18747,0.49449 0.18748,0.49449 1.86175,0.24865 1.86174,0.24868 1.47743,0.64914 1.47742,0.64915 -0.47138,1.58531 -0.4714,1.58532 -0.8311,1.52373 -0.8311,1.52372 -1.15386,0.78662 -1.15387,0.78662 -0.42058,0.17396 -0.42057,0.17395 0.52482,0.37566 0.5248,0.37566 1.41347,0.005 1.41346,0.005 2.0568,-0.54223 z m -38.19154,-8.79852 1.3299,-0.55361 -0.321,-0.63022 -0.321,-0.63023 -1.44373,-5.48887 -1.44374,-5.48887 -0.55102,-3.71827 -0.55102,-3.71827 0.21561,-2.47884 0.21561,-2.47885 0.36853,-2.65591 0.36852,-2.6559 0.99956,-4.63616 0.99956,-4.63615 1.55095,-4.21687 1.55095,-4.21686 1.47286,-3.54122 1.47286,-3.5412 0.839,-2.45154 0.839,-2.45155 0.5427,-3.16586 0.5427,-3.16585 0.0144,-3.06007 0.0144,-3.06007 -0.24641,-1.41498 -0.24642,-1.41497 -0.63605,-2.3833 -0.63605,-2.38331 -1.1613,-2.20538 -1.16131,-2.20539 -1.75845,-1.78549 -1.75846,-1.78548 -1.91954,-1.32884 -1.91954,-1.328831 -2.44483,-0.560986 -2.44484,-0.560979 -1.95171,-0.184541 -1.95169,-0.184542 -2.73938,0.760661 -2.73938,0.760651 -3.00619,2.371567 -3.0062,2.37157 -0.80795,0.70631 -0.80796,0.70633 -1.02889,1.82013 -1.02889,1.82012 v 1.65988 1.65986 l 0.37883,-0.23697 0.37884,-0.23697 0.65489,-1.46601 0.65488,-1.466 0.45326,-0.56186 0.45325,-0.56187 0.76421,-0.41197 0.76423,-0.41196 h 1.76006 1.76008 l 0.37449,-0.70824 0.37449,-0.70824 h 0.84174 0.84173 l 0.22571,0.36962 0.22571,0.36964 -0.42285,0.51567 -0.42283,0.51567 h -0.79309 -0.79309 l -0.78135,0.64037 -0.78136,0.64038 -0.27463,3.04977 -0.27464,3.04978 -0.23092,0.73636 -0.23091,0.73636 h -0.60733 -0.60735 l -4.64191,3.39816 -4.64193,3.39817 -0.13915,-0.14083 -0.13914,-0.14083 4.7997,-3.72151 4.79971,-3.72153 0.10903,-0.93478 0.10904,-0.93479 -0.38376,-0.72575 -0.38375,-0.72576 h -1.05469 -1.0547 l -1.03225,0.54027 -1.03225,0.54028 -0.002,0.2565 -0.002,0.25649 -2.12626,2.83297 -2.12627,2.83296 -0.67108,1.31385 -0.67108,1.31385 v 0.52142 0.52143 l 0.73471,0.23601 0.73471,0.23602 4.72287,-3.26644 4.72289,-3.26645 0.92764,0.0243 0.92764,0.0243 2.79901,-0.53878 2.79902,-0.53877 2.22358,-0.68064 2.22357,-0.68065 h 1.13663 1.13662 l 0.92578,0.8684 0.92578,0.86839 -7e-4,2.40723 -7e-4,2.40722 -1.06545,4.02277 -1.06545,4.02277 -1.9503,3.93596 -1.95031,3.93597 -3.16338,5.14374 -3.16339,5.14374 -2.8983,5.66594 -2.89832,5.66593 -1.25285,3.28715 -1.25286,3.28716 -0.84895,3.61819 -0.84895,3.6182 -0.32709,3.89534 -0.32709,3.89532 0.14285,2.30179 0.14285,2.30178 0.33458,1.87841 0.33456,1.8784 0.3811,1.43246 0.38111,1.43247 0.76435,-0.20748 0.76436,-0.20747 1.92882,-0.004 1.92882,-0.004 0.34678,-0.79678 0.34679,-0.79677 1.83543,0.0487 1.83545,0.0487 v -0.61188 -0.61187 l 1.05491,-2.13669 1.05492,-2.13669 2.15664,-2.16932 2.15665,-2.16933 h 0.36134 0.36135 l 2.39252,2.47492 2.39253,2.47493 0.85715,1.96168 0.85715,1.96169 v 2.00382 2.00381 l 0.96216,-0.9186 0.96216,-0.91863 1.3299,-0.5536 z m 52.7071,1.31965 1.20573,-0.49972 1.09922,-0.84859 1.09921,-0.84858 1.31388,-2.53063 1.31387,-2.53064 -0.12006,-0.0906 -0.12006,-0.0906 -2.69542,0.85864 -2.6954,0.85863 -0.3772,1.1568 -0.3772,1.15679 -1.21338,2.03946 -1.21337,2.03945 v 0.15802 0.15802 l 0.78722,-0.24334 0.78722,-0.24335 z m -123.096812,-1.27458 -1.01491,-1.85913 -0.41248,-1.32109 -0.41248,-1.32109 -1.350255,-0.36799 -1.350262,-0.368 -1.410493,-0.50369 -1.410493,-0.50369 0.836684,1.91485 0.836677,1.91484 0.986811,1.26012 0.986802,1.26013 1.730609,0.87694 1.73061,0.87694 h 0.63404 0.63405 z m -2.290723,-14.34694 -0.111656,-0.113 -2.580326,-0.73182 -2.580325,-0.73181 -2.624074,-1.27125 -2.624065,-1.27124 -0.299317,-0.14887 -0.299307,-0.14886 0.233431,1.19286 0.233439,1.19285 0.540126,1.82376 0.540117,1.82376 1.048128,1.28699 1.048127,1.28698 1.801447,0.92438 1.801447,0.92438 1.749383,0.60373 1.749383,0.60374 0.24284,-3.56679 0.242845,-3.56678 z m 129.907195,6.08294 2.44159,-0.91599 1.43623,-1.24428 1.43624,-1.24426 0.50198,-0.98253 0.502,-0.98253 0.6686,-2.52314 0.66859,-2.52314 h -0.10138 -0.1014 l -1.86559,0.95718 -1.8656,0.95718 -3.6737,1.14573 -3.6737,1.14574 0.12389,0.46447 0.12391,0.46445 0.0209,3.09856 0.0209,3.09856 h 0.44746 0.44747 l 2.4416,-0.916 z m -127.763382,-10.70139 1.11835,-2.37039 1.761662,-1.92469 1.76166,-1.9247 -0.081,-0.0633 -0.081,-0.0633 -2.973952,-0.97771 -2.97395,-0.9777 -4.250891,-1.70459 -4.250895,-1.70458 -2.92156,-1.4766 -2.921561,-1.47661 -1.113759,-0.84698 -1.113751,-0.847 h -0.13852 -0.138528 l 0.602046,3.47718 0.602038,3.47718 0.941706,1.88092 0.941706,1.88091 1.64367,1.66361 1.643661,1.6636 2.438313,1.38165 2.438314,1.38166 2.624065,0.96103 2.624076,0.96104 0.34987,-1.2e-4 0.34988,-1.1e-4 z m 125.797762,1.6579 2.18812,-0.75235 2.6994,-1.40545 2.69938,-1.40544 1.54663,-1.3779 1.54661,-1.37791 1.04959,-1.68758 1.04958,-1.68759 0.38685,-1.23942 0.38685,-1.23942 0.48515,-2.83297 0.48515,-2.83296 -0.10926,-0.12429 -0.10925,-0.1243 -1.16008,0.88275 -1.16008,0.88275 -2.91731,1.47445 -2.91733,1.47444 -3.73032,1.5304 -3.73032,1.5304 -3.41799,1.13732 -3.41799,1.13732 1.73879,1.92559 1.73878,1.92558 1.15439,2.44953 1.15439,2.44954 0.0861,0.0199 0.086,0.0199 2.18812,-0.75235 z m -118.03124,-9.84065 0.48784,-0.31266 -0.37812,-1.54106 -0.37812,-1.54105 -0.24071,-2.19823 -0.2407,-2.19823 -0.56877,-0.5061 -0.56877,-0.5061 -4.451932,-2.84889 -4.451915,-2.8489 -3.382322,-2.53947 -3.382312,-2.53948 -3.011921,-2.94281 -3.01192,-2.94282 -1.574441,-2.14125 -1.574441,-2.14124 -0.21932,-0.0143 -0.219321,-0.0143 -0.78856,1.8553 -0.788551,1.85528 -0.375224,2.2171 -0.375224,2.2171 0.385982,2.28068 0.385982,2.28069 0.82218,1.67736 0.822181,1.67737 1.574441,1.63707 1.574441,1.63708 2.099258,1.43211 2.099257,1.43211 2.637563,1.42385 2.637563,1.42386 3.310326,1.34961 3.310338,1.34961 3.498752,1.15405 3.49876,1.15405 0.17494,0.0175 0.17493,0.0175 0.48786,-0.31266 z m 112.01329,-1.29091 3.85172,-1.26029 3.78754,-1.69461 3.78753,-1.69462 2.89996,-1.73719 2.89996,-1.73721 2.22266,-2.16574 2.22266,-2.16574 0.9176,-2.02863 0.91761,-2.02863 0.18087,-2.93445 0.18088,-2.93444 -0.73057,-2.43245 -0.73057,-2.43244 -0.47826,-0.66083 -0.47827,-0.66084 -1.77257,2.25438 -1.77257,2.25437 -3.10067,3.01155 -3.10068,3.01154 -2.72373,2.06383 -2.72373,2.06384 -5.14848,3.35781 -5.14848,3.35782 -0.36482,0.41983 -0.36483,0.41983 -0.81302,3.33874 -0.81301,3.33875 0.63243,0.46805 0.63242,0.46806 h 0.63936 0.63934 z m -104.68526,-1.18767 1.51811,-0.20795 -3.23163,-1.68886 -3.23163,-1.68886 -0.10366,0.10492 -0.10366,0.10491 0.33953,1.58395 0.33954,1.58394 0.1693,0.48136 0.16931,0.48135 1.30833,-0.27341 1.30835,-0.27341 z m 96.38083,-1.0642 0.2949,-1.50929 -0.14629,-0.14807 -0.14631,-0.14808 -2.76699,1.31321 -2.767,1.31323 2.06404,0.27708 2.06405,0.27709 0.18828,0.19057 0.18829,0.19057 0.36607,-0.12351 0.36607,-0.12351 z m -90.21462,-0.64876 -0.50429,-1.68208 -0.004,-0.21363 -0.004,-0.21364 -2.5366,-1.70232 -2.5366,-1.70231 -2.75714,-2.15644 -2.75713,-2.15643 -0.88634,-0.69146 -0.88636,-0.69146 0.22775,2.20535 0.22774,2.20535 0.51139,1.00092 0.51138,1.00091 1.32716,1.17939 1.32715,1.17938 4.20126,2.04975 4.20127,2.04975 0.42061,0.0105 0.42061,0.0105 -0.50429,-1.68208 z m 83.009,-0.0663 3.53466,-1.39422 1.79379,-0.92 1.79379,-0.92001 0.6771,-1.12692 0.67711,-1.12693 0.21046,-1.42801 0.21046,-1.42803 -0.11296,-1.50437 -0.11296,-1.50437 -2.62407,2.30761 -2.62407,2.30761 -3.20571,2.38385 -3.20571,2.38385 -0.38052,1.48476 -0.38051,1.48477 v 0.19731 0.19731 h 0.10723 0.10725 z m -83.64282,-4.89143 -0.1691,-0.61972 -0.23651,-1.7706 -0.23651,-1.7706 -4.09728,-4.07239 -4.09728,-4.07239 -0.85569,-1.68208 -0.85569,-1.68207 h -0.21545 -0.21545 l -0.2225,1.64297 -0.22249,1.64297 0.002,1.8097 0.002,1.80971 0.65979,1.09513 0.6598,1.09514 1.66455,1.38371 1.66454,1.38372 3.18489,2.1915 3.1849,2.19149 0.28598,0.0217 0.28599,0.0217 -0.16911,-0.61971 z m 83.03256,-0.7899 2.05086,-1.40961 2.5902,-2.10899 2.59022,-2.10901 0.89981,-1.35055 0.89982,-1.35056 0.19705,-1.23942 0.19706,-1.23942 -0.42218,-2.05562 -0.42218,-2.05561 -1.48947,2.29298 -1.48949,2.29299 -3.53816,3.37821 -3.53816,3.37822 -0.30237,1.69623 -0.30236,1.69622 -0.18656,0.79677 -0.18655,0.79677 h 0.2008 0.2008 z m 14.70479,-2.63542 2.97394,-2.13261 4.19852,-3.42015 4.19851,-3.42014 3.0751,-2.92014 3.07511,-2.92014 1.5631,-2.05602 1.56311,-2.05602 0.76145,-1.70588 0.76145,-1.70588 0.0234,-3.54121 0.0234,-3.54121 -0.93425,-1.7706 -0.93424,-1.7706 -0.49171,-0.66282 -0.49169,-0.66282 -2.04222,3.67284 -2.04223,3.67285 -2.71987,4.07239 -2.71988,4.07239 -2.65862,3.36415 -2.65864,3.36414 -3.46614,3.75757 -3.46615,3.75756 -0.51715,2.97073 -0.51716,2.97074 -0.26236,0.6778 -0.26236,0.67781 0.4968,-0.30606 0.4968,-0.30605 2.97395,-2.13262 z m -111.62752,1.53387 -0.39158,-0.74055 -0.20247,-2.71213 -0.20247,-2.71213 -3.42853,-3.71827 -3.428542,-3.71827 -2.648944,-3.36414 -2.648933,-3.36415 -2.579976,-3.89534 -2.579966,-3.89532 -1.771354,-3.18709 -1.771362,-3.18708 -0.309566,-0.52874 -0.309566,-0.52873 -0.567209,0.47645 -0.567208,0.47645 -0.929583,1.98881 -0.929582,1.98883 -0.169813,2.14114 -0.169812,2.14113 0.573957,2.26755 0.573948,2.26753 0.759175,1.24328 0.759167,1.24327 1.688819,2.05393 1.68881,2.05393 3.929415,3.59332 3.929415,3.59331 5.772948,4.3805 5.772952,4.3805 0.27472,0.002 0.27472,0.002 -0.39158,-0.74055 z m 13.11222,-6.78451 -0.23489,-2.21326 -0.62669,-1.06236 -0.62669,-1.06237 -1.75031,-3.55337 -1.75033,-3.55337 -1.28857,-3.17492 -1.28857,-3.17494 -0.25713,-0.27741 -0.25711,-0.27742 -0.45389,2.04802 -0.4539,2.04804 -0.0181,2.69054 -0.0181,2.69054 1.06744,1.91302 1.06743,1.91303 3.2824,3.59798 3.2824,3.59797 0.27978,0.0318 0.27978,0.0317 -0.2349,-2.21325 z m 89.68592,-5.8624 1.14208,-1.62447 0.38363,-1.43559 0.38363,-1.43558 -0.2248,-2.52859 -0.22479,-2.52859 -0.46566,-1.5438 -0.46566,-1.54381 -0.26573,0.70824 -0.26573,0.70825 -2.0654,4.80342 -2.0654,4.80342 -1.53726,2.65797 -1.53726,2.65798 -0.0581,1.92281 -0.0581,1.92281 0.0298,0.2533 0.0299,0.2533 3.06141,-3.2133 3.06142,-3.2133 1.14208,-1.62447 z m -102.41275,-0.95444 0.3865,-3.18708 -1.83075,-3.18709 -1.83075,-3.18708 -2.1979,-4.60358 -2.197892,-4.60357 -1.1052,-3.01003 -1.105212,-3.01003 -0.686252,-2.12472 -0.686261,-2.12473 -0.890525,-3.5412 -0.890526,-3.54121 -0.226945,-3.010026 -0.226945,-3.01003 -2.154044,2.794241 -2.154052,2.794235 -0.90461,1.86987 -0.90461,1.86988 -0.527565,2.05005 -0.527574,2.05006 v 1.27781 1.27781 l 0.554954,1.92341 0.554954,1.9234 1.649999,3.18709 1.649998,3.18708 2.560264,3.89533 2.560263,3.89534 2.640119,3.54121 2.64013,3.54121 2.653592,3.17888 2.65359,3.17889 0.0783,-1.05417 0.0783,-1.05415 z m 114.51581,-2.6559 3.25323,-4.07239 2.81453,-4.07239 2.81452,-4.07239 1.76386,-3.1871 1.76387,-3.18707 0.73012,-2.20209 0.73011,-2.20209 v -1.70737 -1.70737 l -0.53969,-2.1106 -0.53968,-2.11059 -1.4049,-2.47885 -1.40491,-2.47884 -1.71797,-1.947665 -1.71797,-1.947671 -0.0116,2.478846 -0.0116,2.47884 -0.84797,3.54254 -0.84798,3.54253 -1.11237,3.53989 -1.11236,3.53988 -1.22195,3.01003 -1.22195,3.01002 -2.10351,4.24946 -2.1035,4.24945 -1.38432,2.4033 -1.38432,2.4033 0.21351,2.90851 0.21352,2.90851 0.19086,1.23574 0.19087,1.23574 1.37814,-1.58986 1.37815,-1.58986 3.25324,-4.07239 z m -101.16867,1.32796 0.14926,-2.56738 -0.99969,-2.99446 -0.9997,-2.99448 -0.65257,-3.02559 -0.65256,-3.02559 -0.23972,-1.85913 -0.23973,-1.85913 h -0.26926 -0.26926 l -0.9922,2.21325 -0.99221,2.21326 -0.0154,2.6559 -0.0154,2.65592 1.22595,2.6559 1.22595,2.65591 1.57076,2.92114 1.57077,2.92116 0.22292,3.4e-4 0.22292,3.5e-4 0.14926,-2.56737 z m 83.63095,-1.06237 1.99113,-3.62974 0.92406,-2.47884 0.92405,-2.47886 -0.16903,-2.12472 -0.16904,-2.12472 -0.84025,-2.09906 -0.84024,-2.09905 -0.42596,-0.14371 -0.42597,-0.14371 v 0.94771 0.94772 l -0.71562,3.5542 -0.71562,3.5542 -1.03375,3.26636 -1.03377,3.26634 v 2.70781 2.70781 h 0.26944 0.26944 z m -94.63312,-5.01685 0.0665,-2.27241 0.70917,-1.88852 0.70918,-1.8885 1.7e-4,-0.61548 1.8e-4,-0.61548 -1.03296,-3.27985 -1.03296,-3.27984 -0.91713,-3.54122 -0.91713,-3.5412 -0.67894,-3.71827 -0.67895,-3.71827 -0.21808,-6.020048 -0.21809,-6.020057 0.38832,-2.90509 0.38832,-2.90509 0.68354,-2.049288 0.68354,-2.04928 -0.11086,-0.112213 -0.11087,-0.112205 -2.53186,1.525378 -2.53186,1.52537 -1.666202,1.593551 -1.6662,1.593543 -0.87627,1.773327 -0.876274,1.773335 -0.453731,2.733085 -0.453732,2.733082 0.924637,4.70072 0.92464,4.70073 1.63051,4.95769 1.63052,4.95769 1.928632,4.95769 1.92864,4.95769 2.05841,4.16093 2.05841,4.16092 h 0.0961 0.0961 z m 105.51025,-1.93393 1.96608,-4.20637 1.55367,-3.8499 1.55367,-3.84988 1.25351,-3.65675 1.25349,-3.65675 1.04964,-3.64689 1.04962,-3.6469 0.52725,-2.7888 0.52726,-2.788798 5e-5,-1.77827 6e-5,-1.778268 -0.65241,-2.381366 -0.65242,-2.381366 -0.92114,-1.408832 -0.92115,-1.408824 -1.74754,-1.398113 -1.74754,-1.398113 -2.12249,-1.304982 -2.1225,-1.304992 -0.12321,0.126778 -0.12322,0.126787 0.92768,2.655911 0.92768,2.655901 0.004,8.144786 0.004,8.144771 -0.64744,3.54121 -0.64744,3.5412 -1.03404,4.0724 -1.03405,4.07239 -1.07497,3.44658 -1.07496,3.44659 0.79028,2.13882 0.79028,2.13883 0.0418,2.29098 0.0418,2.29098 0.20998,0.003 0.20996,0.003 1.9661,-4.20635 z m -13.79268,1.81603 0.384,-1.68207 0.50243,-3.1871 0.50242,-3.18709 0.22373,-2.6988 0.22372,-2.6988 -0.40346,-1.55064 -0.40345,-1.55066 -1.45902,-2.28718 -1.45902,-2.2872 -0.4072,7.59901 -0.4072,7.599 -0.0649,1.06236 -0.0649,1.06236 0.90113,2.12474 0.90112,2.12473 0.008,0.6197 0.008,0.61972 h 0.31497 0.31498 l 0.384,-1.68208 z m -77.64624,-6.6926 -0.28953,-2.78014 -0.18359,-5.66593 -0.18358,-5.66593 -0.0168,-0.15733 -0.0168,-0.15733 -0.90233,1.21969 -0.90233,1.2197 -0.84705,1.6703 -0.84705,1.6703 0.005,2.22502 0.005,2.22503 0.6919,3.31792 0.69191,3.31793 0.74999,2.52507 0.74999,2.52507 0.79193,-2.35461 0.79192,-2.35462 -0.28953,-2.78014 z m -8.8974,-6.85253 0.99916,-1.94766 -0.0969,-5.84299 -0.0969,-5.843 0.55048,-5.488865 0.55047,-5.488873 0.52505,-2.769116 0.52506,-2.769116 0.72045,-2.856 0.72046,-2.856 1.38973,-3.744741 1.38974,-3.74475 0.90527,-1.563482 0.90528,-1.563483 1.18426,-1.326741 1.18427,-1.32675 v -0.17695 -0.176949 l -1.66191,0.311878 -1.66192,0.311887 -1.74937,0.576987 -1.74938,0.576987 -2.04055,1.032866 -2.04055,1.032874 -1.48919,1.507252 -1.4892,1.507261 -0.8912,1.925629 -0.89122,1.92562 -0.79374,3.187094 -0.79375,3.187085 -0.16265,5.782308 -0.16266,5.782315 0.41364,4.487183 0.41363,4.4872 0.86875,5.13474 0.86875,5.13476 0.69727,2.83297 0.69725,2.83296 0.20574,0.53119 0.20572,0.53117 0.42571,-1.59354 0.4257,-1.59354 z m 96.71082,-3.5412 0.69787,-3.71827 0.52006,-3.54121 0.52008,-3.54121 0.39263,-5.766492 0.39263,-5.7665 -0.3872,-3.639908 -0.3872,-3.639916 -0.86063,-3.254886 -0.86062,-3.254887 -0.73798,-1.464124 -0.73799,-1.464124 -1.63793,-1.657809 -1.63794,-1.6578 -2.2663,-1.080928 -2.2663,-1.080919 -2.94647,-0.751668 -2.94647,-0.751659 -0.1661,0.168116 -0.16611,0.168125 1.47132,1.615549 1.47132,1.615558 1.21139,2.55261 1.21141,2.552609 1.36678,4.249444 1.36678,4.249453 0.70356,3.559836 0.70356,3.559836 0.55784,5.116122 0.55783,5.116122 -0.0375,6.55124 -0.0375,6.55123 0.86154,1.59354 0.86154,1.59355 0.41549,1.41648 0.4155,1.41648 0.19304,0.53119 0.19306,0.53117 0.64856,-2.47884 0.64857,-2.47884 z m -90.21809,-5.2015 1.69233,-2.19148 0.7049,-3.47446 0.70491,-3.474452 0.66137,-2.301791 0.66137,-2.301779 1.30339,-3.541214 1.30339,-3.541204 1.94214,-3.767492 1.94215,-3.767483 2.19435,-3.110336 2.19435,-3.110336 2.90099,-2.956962 2.90099,-2.956962 2.46206,-1.715994 2.46205,-1.715999 1.49932,-0.768495 1.49933,-0.768496 -0.21103,-0.3456 -0.21104,-0.345605 -1.30716,-0.674958 -1.30717,-0.674958 -2.19193,-0.458231 -2.19195,-0.45823 -2.31768,0.615261 -2.3177,0.615256 -2.46902,1.214872 -2.46902,1.214868 -1.99344,1.600517 -1.99344,1.600516 -1.38523,1.868523 -1.38522,1.868521 -1.45147,2.927283 -1.45145,2.927283 -1.35891,4.188527 -1.3589,4.188535 -1.05768,5.306124 -1.05768,5.30613 -0.53803,5.185501 -0.53802,5.18549 v 3.1682 3.1682 l 0.23053,0.60804 0.23053,0.60804 0.69019,-1.37585 0.69018,-1.37585 z m 83.23546,0.50722 v -4.34014 l -0.53087,-4.6014 -0.53088,-4.601405 -0.54514,-3.010028 -0.54514,-3.010021 -0.6887,-2.832965 -0.68872,-2.832966 -1.07248,-3.364149 -1.07247,-3.364149 -1.7716,-3.698956 -1.77159,-3.698955 -2.4762,-2.530587 -2.47619,-2.53059 -2.27419,-1.260705 -2.2742,-1.260702 -2.62406,-0.95335 -2.62408,-0.95335 -1.97367,0.200825 -1.97368,0.200829 -1.93055,0.731076 -1.93055,0.731072 -0.38704,0.472011 -0.38704,0.472007 2.89176,1.646234 2.89177,1.646233 2.65655,2.285211 2.65656,2.285206 2.10108,2.57707 2.10108,2.577053 1.65892,2.459019 1.65893,2.459 2.04862,4.136319 2.04861,4.136318 1.57975,4.736534 1.57974,4.736541 0.76125,3.86466 0.76125,3.86466 1.7132,2.15185 1.71319,2.15184 0.60098,1.32237 0.60098,1.32236 0.26242,0.009 0.2624,0.009 z m -174.747147,68.98331 0.858786,-0.86921 v -1.05871 -1.05871 L 28.01,174.52254 27.180651,173.54667 h -1.277707 -1.277683 l -0.771494,0.78086 -0.771494,0.78085 v 1.4525 1.4525 l 0.818029,0.67044 0.81803,0.67043 h 1.201709 1.201709 z m 267.655117,-0.35412 0.85879,-0.86921 v -1.05872 -1.0587 l -0.82935,-0.97588 -0.82935,-0.97587 h -1.27768 -1.27768 l -0.77149,0.78085 -0.7715,0.78086 v 1.4525 1.45249 l 0.81803,0.67045 0.81803,0.67043 h 1.20171 1.20171 z m -249.739569,-67.38756 1.81177,-3.8068 0.20544,-0.77936 0.205444,-0.77936 -0.371331,-1.39574 -0.371326,-1.39574 -1.397178,-1.27758 -1.397177,-1.27758 -1.835842,0.005 -1.835841,0.005 -0.508188,0.32538 -0.508188,0.32538 -0.782483,-1.165488 -0.78248,-1.165492 -1.295175,-0.622063 -1.295174,-0.622055 -1.7262,0.167877 -1.726197,0.167877 -0.936097,0.688279 -0.936097,0.688288 -1.846407,3.604317 -1.846407,3.60432 8.319113,4.23672 8.319112,4.23673 0.362569,0.019 0.36257,0.0191 1.81177,-3.80679 z m -5.685793,-0.85618 -2.099256,-1.08769 -0.109923,-0.0984 -0.109925,-0.0984 1.29296,-2.59862 1.292963,-2.59863 0.566341,-0.43643 0.566345,-0.43642 0.914974,-0.0113 0.914975,-0.0113 0.921873,0.73394 0.921875,0.73395 v 1.0455 1.0455 l -1.228964,2.47 -1.228963,2.47 -0.25801,-0.017 -0.258009,-0.017 z m -7.402823,-3.76492 -2.504562,-1.31042 1.010739,-2.01127 1.010739,-2.01125 0.78445,-0.55612 0.78445,-0.556116 h 0.823755 0.823755 l 1.022712,1.035126 1.022715,1.03511 v 0.74558 0.74559 l -1.054666,2.11462 -1.054662,2.11463 -0.08244,-0.0175 -0.08243,-0.0175 -2.50456,-1.31043 z m 242.153145,8.01694 0.89115,-0.41096 v -0.30436 -0.30436 l -1.57444,-3.17293 -1.57444,-3.17294 v -0.30357 -0.30357 l 7.19685,-3.49555 7.19685,-3.495541 0.16485,-0.269946 0.16484,-0.269946 -0.5364,-1.049867 -0.5364,-1.049858 -8.31226,4.074678 -8.31228,4.07466 -0.27652,0.2724 -0.27652,0.2724 2.16716,4.66011 2.16716,4.66011 h 0.27962 0.27962 z M 53.520975,97.38698 l 2.676348,-4.237783 -0.975616,-0.787362 -0.975616,-0.787372 -0.259507,0.162331 -0.259506,0.162331 -1.828372,3.017649 -1.828382,3.017638 -0.307283,0.192213 -0.307278,0.192214 -6.647574,-4.278562 -6.64757,-4.278565 h -0.328773 -0.328747 l -0.584891,0.903492 -0.584891,0.903474 0.319944,0.323829 0.319941,0.323821 7.691746,4.943363 7.691748,4.943369 0.243952,-0.23915 0.243952,-0.23916 z m 222.219415,1.357705 1.81292,-0.866584 1.12406,-1.295769 1.12406,-1.295766 0.68424,-1.565591 0.68424,-1.5656 V 90.032863 87.91037 l -1.00078,-1.98062 -1.00078,-1.98061 -1.49806,-1.156463 -1.49805,-1.156464 -1.47226,-0.403139 -1.47226,-0.403138 -1.94965,0.177153 -1.94964,0.177152 -1.41493,0.73061 -1.41493,0.730591 -1.11354,0.948356 -1.11355,0.948356 -0.88773,1.773105 -0.88772,1.773096 -0.18992,1.862426 -0.18991,1.862426 0.54601,1.621937 0.54603,1.621919 0.95345,1.265201 0.95345,1.265195 1.48357,0.879979 1.48357,0.879988 1.52309,0.279833 1.52309,0.279834 1.39951,-0.147908 1.3995,-0.147917 z m -6.29659,-1.906528 -0.98491,-0.299218 -1.15258,-0.889777 -1.15258,-0.889784 -0.57404,-1.224398 -0.57406,-1.224397 v -1.646141 -1.646141 l 0.56574,-1.133305 0.56575,-1.133314 0.74629,-0.831234 0.7463,-0.831234 1.29809,-0.673776 1.29809,-0.673776 h 1.79791 1.79791 l 1.23065,0.591055 1.23063,0.591065 0.98043,1.36986 0.98042,1.36986 0.22757,1.36334 0.22758,1.363348 -0.39582,1.487797 -0.39582,1.487796 -1.46512,1.480727 -1.46513,1.480716 -1.44009,0.435511 -1.4401,0.435511 -0.8341,-0.03048 -0.8341,-0.03048 -0.98491,-0.299218 z m -211.700265,-7.647115 1.100673,-0.465474 1.09873,-0.935731 1.09873,-0.935731 0.900986,-1.556085 0.900994,-1.556085 0.18598,-2.075849 0.185971,-2.075849 -0.580785,-1.769792 -0.580776,-1.769791 -1.242177,-1.468802 -1.242169,-1.468811 -1.559,-0.924719 -1.558992,-0.92471 -2.212297,-0.17974 -2.212296,-0.179731 -1.777262,0.59747 -1.777258,0.59747 -1.401155,1.376274 -1.401155,1.376275 -0.589297,1.153389 -0.589296,1.153407 -0.176733,2.228443 -0.176736,2.228453 0.627159,1.662105 0.627157,1.662115 1.416742,1.555633 1.416739,1.555624 1.322328,0.682795 1.322327,0.682777 1.317473,0.318009 1.317464,0.318009 1.568629,-0.197937 1.568637,-0.197946 z m -6.833583,-2.845466 -1.858362,-0.937299 -1.034496,-1.630079 -1.034499,-1.630079 0.11956,-2.309711 0.119556,-2.309711 0.809749,-1.150988 0.809749,-1.15098 1.428681,-0.737696 1.428674,-0.737706 2.211789,0.142548 2.211789,0.142539 0.945671,0.714618 0.94568,0.714618 1.022437,1.27859 1.022445,1.278582 0.177944,1.597875 0.177944,1.597866 -0.231898,1.251126 -0.231899,1.251126 -0.933758,1.12317 -0.933767,1.123179 -1.413977,0.650077 -1.413977,0.650077 -1.243342,0.008 -1.243333,0.008 -1.85836,-0.937299 z m 211.121738,-4.996771 1.3995,-0.734224 1.2929,-1.357953 1.29289,-1.357962 0.71121,-1.593542 0.71121,-1.593543 0.008,-1.906581 0.008,-1.906581 -0.41146,-1.389998 -0.41146,-1.389988 -1.38053,-1.587392 -1.38053,-1.587393 -1.44436,-0.760482 -1.44437,-0.760481 h -2.44913 -2.44913 l -1.57444,0.813458 -1.57444,0.813462 -1.16834,1.112718 -1.16833,1.112718 -0.90901,1.770609 -0.90899,1.770598 -7e-4,2.478846 -7e-4,2.478846 0.73533,1.416487 0.73533,1.416478 1.16776,1.13086 1.16776,1.13086 1.57444,0.742746 1.57444,0.742747 2.44913,-0.135549 2.44913,-0.135549 1.3995,-0.734215 z m -7.53237,-2.597784 -1.23459,-0.724921 -0.83775,-1.237439 -0.83774,-1.237438 -0.14549,-1.836299 -0.14549,-1.836309 1.00528,-1.935507 1.00528,-1.935498 1.86479,-0.985995 1.86479,-0.985997 h 1.42402 1.42402 l 1.51492,0.742255 1.51491,0.742255 0.91972,1.588432 0.91973,1.58844 v 1.889855 1.889854 l -0.93397,1.613033 -0.93397,1.613043 -1.50841,0.894712 -1.50842,0.894712 -2.06851,-0.008 -2.06852,-0.008 -1.2346,-0.724922 z m -181.691991,-5.927 1.372417,-0.708647 1.424953,-1.564652 1.424963,-1.564652 0.433844,-1.330499 0.433836,-1.330493 -0.142021,-2.35798 -0.142021,-2.357981 -0.671276,-1.40474 -0.671275,-1.404741 -1.247771,-1.262908 -1.247771,-1.262909 -1.387901,-0.679423 -1.387901,-0.679419 -2.30052,-0.142073 -2.300521,-0.142073 -1.8076,0.787043 -1.8076,0.787041 -1.261479,1.413257 -1.261496,1.413254 -0.533403,1.288848 -0.533404,1.288843 -8.75e-4,2.150647 -8.75e-4,2.150649 0.692983,1.585612 0.692983,1.585612 1.15448,1.330825 1.15447,1.330826 1.43263,0.745466 1.43263,0.745476 1.049625,0.28009 1.049633,0.280099 1.792203,-0.13088 1.792195,-0.130871 1.372408,-0.708647 z m -6.709191,-2.491134 -1.402502,-0.644868 -1.11501,-1.285341 -1.115011,-1.285328 -0.367005,-1.337635 -0.367014,-1.337631 -0.0017,-0.808146 -0.0018,-0.808147 0.541509,-1.311744 0.541518,-1.311749 0.770519,-0.835251 0.770519,-0.83525 1.040547,-0.547658 1.040557,-0.547659 1.758451,-0.02553 1.758459,-0.0255 1.5609,0.872412 1.560909,0.872412 0.801497,1.204379 0.801505,1.204379 0.392249,1.451527 0.392232,1.451527 -0.40516,1.556192 -0.405169,1.556194 -0.740426,1.052451 -0.740426,1.052445 -1.434118,0.659202 -1.434118,0.659203 h -1.399499 -1.399508 l -1.402501,-0.644877 z m 184.526452,-6.419927 5.60628,-6.903302 -0.94823,-0.785249 -0.94822,-0.785252 -0.2096,0.07495 -0.2096,0.07495 -2.69003,3.282127 -2.69003,3.282122 -3.04826,-2.543009 -3.04826,-2.543012 -0.31057,-0.27438 -0.31056,-0.274376 2.67222,-3.241537 2.67223,-3.241537 v -0.296053 -0.296055 l -0.92811,-0.738901 -0.92809,-0.738906 -0.0702,0.09349 -0.0702,0.09349 -6.01963,7.406746 -6.01964,7.406745 0.98259,0.816589 0.98259,0.816588 1.04963,-1.166463 1.04963,-1.166464 1.58255,-1.889256 1.58254,-1.889256 3.22825,2.719472 3.22825,2.71947 v 0.194784 0.194785 l -2.44609,3.004038 -2.44609,3.00404 0.95911,0.844692 0.95912,0.8447 0.59009,-0.598737 0.59009,-0.598736 z M 84.819481,62.638894 v -0.16142 l -3.531844,-5.344932 -3.531844,-5.344934 0.470433,0.281721 0.470424,0.281721 5.359804,3.512673 5.359805,3.512677 0.164017,-0.166016 0.164027,-0.166012 -1.076191,-6.465335 -1.076181,-6.465338 0.134922,-0.136556 0.134913,-0.136555 3.263654,4.98032 3.263654,4.980324 0.278519,0.174224 0.278527,0.174223 0.884565,-0.586626 0.884573,-0.586626 v -0.314711 -0.31471 l -5.129217,-7.789342 -5.129227,-7.78934 -0.381325,0.0018 -0.381317,0.0018 -1.00676,0.815377 -1.006759,0.815377 1.114599,6.480741 1.1146,6.480741 -0.114134,0.115518 -0.114133,0.115517 -5.467075,-3.664835 -5.467074,-3.66484 -1.270801,0.874006 -1.270792,0.874006 0.252889,0.423659 0.252898,0.42366 5.005903,7.725082 5.005903,7.725086 1.048022,-0.755311 1.048023,-0.755312 v -0.161475 z m 148.126889,-2.711851 0.21097,-0.796772 0.004,-0.619711 0.004,-0.619711 -0.96216,-0.0035 -0.96215,-0.0035 -1.7842,-0.840856 -1.78419,-0.84086 -0.6989,-1.014819 -0.6989,-1.014651 -0.40338,-1.203735 -0.40339,-1.203738 0.002,-0.743927 0.002,-0.743929 0.36138,-1.316958 0.36136,-1.316955 0.90526,-1.088889 0.90526,-1.088887 1.41547,-0.730884 1.41549,-0.730884 1.9518,0.147456 1.9518,0.147456 1.29588,0.864547 1.29588,0.864547 0.80337,1.290887 0.80338,1.290892 0.52481,-0.29111 0.52482,-0.291108 0.68625,-0.518592 0.68625,-0.518592 -1.01734,-1.485838 -1.01734,-1.485834 -1.4183,-0.980356 -1.41828,-0.980355 -1.36266,-0.449684 -1.36264,-0.449684 -2.14641,0.174384 -2.14639,0.174383 -1.40494,0.725441 -1.40495,0.725445 -1.45364,1.596157 -1.45366,1.59616 -0.58113,2.023302 -0.58114,2.023305 0.23245,1.773572 0.23245,1.773571 0.66425,1.317822 0.66424,1.317825 0.93543,1.125177 0.93542,1.125176 1.44296,0.750807 1.44296,0.750807 1.04963,0.259779 1.04963,0.25978 0.74641,0.03624 0.74642,0.03625 0.21096,-0.796772 z M 99.672738,53.938677 100.5639,53.527716 v -0.292915 -0.292915 l -4.407718,-8.237676 -4.407717,-8.237671 -0.108154,-0.114643 -0.108164,-0.11464 -1.082134,0.566384 -1.082142,0.566389 v 0.212221 0.212221 l 4.430387,8.277584 4.43039,8.277586 h 0.27647 0.27648 z m 3.800642,-2.469968 0.76422,-0.402091 0.0924,-0.07505 0.0924,-0.07505 -2.78193,-6.332444 -2.781922,-6.332445 0.12249,-0.123978 0.12249,-0.123977 6.487862,4.789144 6.48788,4.789141 1.41407,-0.600019 1.41407,-0.600022 -0.13405,-0.354122 -0.13405,-0.35412 -3.75351,-8.553466 -3.75351,-8.553462 -1.09745,0.479541 -1.09746,0.479542 0.11305,0.460326 0.11304,0.460325 2.46914,5.665932 2.46913,5.665933 0.35642,0.695004 0.35642,0.695009 -0.93648,-0.621051 -0.93649,-0.62105 -5.67581,-4.276468 -5.675822,-4.276473 -0.40491,-0.160761 -0.40494,-0.16076 -1.238568,0.645007 -1.23858,0.645006 3.328028,7.613597 3.328022,7.613598 0.48435,1.150893 0.48434,1.150893 h 0.39074 0.39073 z m 115.00228,-0.748807 1.15666,-0.796772 0.6536,-0.893606 0.65358,-0.893607 0.20369,-1.270423 0.2037,-1.270422 -0.7137,-1.632978 -0.71367,-1.632979 -1.66236,-1.160684 -1.66235,-1.160684 -0.6358,-0.619712 -0.63579,-0.619711 v -1.062362 -1.062363 l 0.69975,-0.708242 0.69975,-0.708241 h 1.25956 1.25955 l 1.18957,1.204011 1.18958,1.204011 v 0.566593 0.566593 h 0.18911 0.18911 l 1.01734,-0.761281 1.01735,-0.761283 -0.48883,-0.956756 -0.48882,-0.956753 -1.23665,-1.098958 -1.23663,-1.098953 -1.39379,-0.422658 -1.39379,-0.422653 -1.57601,0.609183 -1.576,0.609183 -0.855,1.028438 -0.855,1.028438 -0.23211,1.069618 -0.23211,1.069622 0.39967,1.225708 0.39967,1.225708 1.93025,1.785543 1.93025,1.785545 h 0.3127 0.31269 l 0.56227,1.100501 0.56228,1.100505 -0.21231,0.856169 -0.21231,0.856168 -0.69086,0.699237 -0.69085,0.699233 h -1.52194 -1.52195 l -1.39284,-1.021207 -1.39284,-1.02121 -0.59942,-1.2785 -0.59941,-1.2785 -0.85925,0.569829 -0.85925,0.569834 v 0.330979 0.330979 l 0.49497,0.956247 0.49496,0.956246 1.16694,1.132197 1.16695,1.132194 1.22457,0.536019 1.22456,0.536018 1.61018,0.01385 1.61016,0.01385 1.15667,-0.796772 z m -91.14087,-8.571899 1.65378,-0.980943 0.22005,0.33549 0.22005,0.335491 1.13709,-0.30556 1.1371,-0.30556 v -0.256026 -0.256023 l -1.39951,-4.956575 -1.3995,-4.956576 v -0.0618 -0.0618 l -2.5366,0.716743 -2.5366,0.716765 -0.267,0.252134 -0.26699,0.252131 0.38012,1.103666 0.38013,1.103668 1.36476,-0.487359 1.36477,-0.487359 0.13807,0.246638 0.13808,0.246642 0.42908,1.34676 0.42908,1.346757 -0.21167,0.85363 -0.21169,0.853629 -1.58434,0.939751 -1.58434,0.939752 -2.05318,-0.150314 -2.05317,-0.150317 -1.18832,-0.824124 -1.18831,-0.824127 -0.85618,-1.280395 -0.85617,-1.280398 v -2.504773 -2.504792 l 0.84314,-1.245405 0.84314,-1.245409 1.23034,-0.853368 1.23034,-0.853369 h 2.53505 2.53504 l 0.16474,-1.062363 0.16475,-1.062363 -0.28192,-0.305618 -0.28193,-0.305618 -1.55361,-0.177241 -1.55363,-0.17724 -1.95232,0.574442 -1.95232,0.574442 -1.47444,1.14784 -1.47443,1.147839 -1.07569,1.937924 -1.07569,1.93792 0.0122,2.488584 0.0122,2.488588 0.92624,1.819419 0.92626,1.81942 1.46085,1.265606 1.46085,1.265603 1.43961,0.538175 1.43962,0.538175 2.49961,-0.114937 2.49962,-0.114933 1.65379,-0.980944 z m 69.08161,0.345665 1.00136,-0.524106 0.72945,-0.938608 0.72947,-0.938604 0.34619,-1.301256 0.34619,-1.301253 -0.33812,-1.193234 -0.33811,-1.193239 -0.96905,-1.034291 -0.96905,-1.034291 -2.35529,-1.206826 -2.3553,-1.206829 -0.23511,-0.948084 -0.23509,-0.948088 0.50196,-0.905166 0.50197,-0.905165 0.90219,-0.321137 0.90221,-0.321137 0.99253,0.252132 0.99253,0.252132 1.11358,1.195065 1.11358,1.195064 0.74203,-0.799437 0.74203,-0.799438 v -0.353574 -0.353575 l -0.96216,-0.911128 -0.96215,-0.911128 -1.11972,-0.571608 -1.11973,-0.571608 -1.50435,0.0013 -1.50434,0.0013 -1.1403,0.703681 -1.14029,0.703682 -0.69525,1.154129 -0.69524,1.154129 -0.002,1.503994 -0.002,1.503994 1.20032,1.344723 1.20032,1.344725 2.26233,1.150616 2.26232,1.150612 0.4018,0.981776 0.40179,0.981775 -0.32553,0.861888 -0.32552,0.861884 -0.76924,0.701467 -0.76924,0.701467 -1.29219,-0.03428 -1.29218,-0.03428 -1.49122,-0.76999 -1.49121,-0.769985 -0.62788,-1.045008 -0.6279,-1.04501 -0.78786,0.84882 -0.78786,0.84882 0.34974,0.653123 0.34974,0.653123 0.99227,0.954298 0.99227,0.954296 1.22456,0.536858 1.22456,0.536854 1.85423,0.01385 1.85422,0.01385 1.00136,-0.524106 z m -49.49394,-3.201146 2.79901,-0.212079 1.11961,-0.354741 1.11961,-0.354741 1.04986,-1.210229 1.04986,-1.210232 0.22685,-1.223913 0.22685,-1.223912 -0.42157,-1.292878 -0.42157,-1.292877 -0.99341,-1.145162 -0.99342,-1.145163 0.51529,-1.513801 0.5153,-1.5138 -0.2335,-1.25976 -0.2335,-1.25976 -1.2101,-1.355698 -1.21012,-1.355698 -1.25454,-0.350597 -1.25453,-0.350598 -3.51378,0.364957 -3.51377,0.364955 -0.0983,0.09948 -0.0983,0.09948 0.7091,8.46657 0.70911,8.46657 0.18656,1.163485 0.18656,1.163485 1.11891,-0.175633 1.1189,-0.175633 z m -2.77178,-3.835702 -0.17995,-1.469127 -0.11143,-1.290172 -0.11143,-1.290169 1.54866,-0.214844 1.54865,-0.214842 h 1.70055 1.70055 l 0.69975,0.708241 0.69976,0.708242 v 1.239423 1.239423 l -0.67453,0.682717 -0.67454,0.682716 -1.51219,0.186707 -1.51219,0.186707 -1.47085,0.157052 -1.47086,0.157057 z m -0.57693,-7.005275 -0.0249,-0.129784 -0.24458,-2.716446 -0.24459,-2.716446 1.01296,-0.20505 1.01297,-0.205052 h 1.5466 1.54662 l 0.85879,0.869206 0.85878,0.869206 v 1.058712 1.058711 l -0.82754,0.973759 -0.82756,0.973758 -2.32134,0.149605 -2.32132,0.149604 -0.0249,-0.129783 z m 36.93833,10.79265 1.70063,-0.586488 1.4304,-1.449706 1.4304,-1.449704 0.67036,-1.416483 0.67037,-1.416484 0.14558,-1.951556 0.14558,-1.951556 -0.3954,-1.486231 -0.39541,-1.48623 -1.14232,-1.515862 -1.14233,-1.515862 -1.1789,-0.804092 -1.17888,-0.804091 -1.73969,-0.522901 -1.7397,-0.522901 -2.13987,-0.220403 -2.13986,-0.220402 -1.32209,8.97989 -1.32209,8.979889 0.0101,0.598014 0.0101,0.598011 1.66191,0.226613 1.66191,0.226613 0.34988,0.121251 0.34987,0.12125 1.94947,0.02794 1.94945,0.02794 1.70063,-0.586492 z m -5.971,-2.487652 -0.72135,-0.144726 0.76408,-5.030332 0.76409,-5.030329 0.24791,-1.728013 0.24791,-1.728014 1.80636,0.216532 1.80636,0.216532 1.40175,0.985037 1.40175,0.985037 0.80991,1.588808 0.80991,1.588807 -0.13019,2.004171 -0.1302,2.004171 -0.91903,1.405604 -0.91904,1.405606 -1.53306,0.751142 -1.53305,0.751144 -1.72638,-0.04822 -1.72639,-0.04822 z m -9.83765,1.632121 1.3368,-0.375711 1.3543,-1.238372 1.3543,-1.238371 0.5222,-1.482502 0.5222,-1.482498 0.21762,-6.639765 0.21761,-6.639765 h -1.37099 -1.37098 l -0.25511,6.782789 -0.25511,6.782786 -0.37792,0.839507 -0.37792,0.839506 -1.1878,0.743006 -1.1878,0.743009 -1.43099,-0.194266 -1.43099,-0.194264 -1.08231,-1.098512 -1.0823,-1.09851 0.12137,-7.273006 0.12136,-7.27301 -1.34593,0.111952 -1.34593,0.111952 -0.19438,6.551236 -0.19438,6.551234 0.4472,1.603201 0.4472,1.603203 1.19034,1.167718 1.19033,1.167717 1.35586,0.489153 1.35586,0.489154 0.69975,0.01356 0.69974,0.01356 1.3368,-0.375711 z"
       style="fill:#000000;stroke-width:0.351992" />
  </g>
</svg>
